<?xml version="1.0" standalone="no"?>
<!DOCTYPE svg PUBLIC "-//W3C//DTD SVG 20010904//EN"
 "http://www.w3.org/TR/2001/REC-SVG-20010904/DTD/svg10.dtd">
<svg version="1.0" xmlns="http://www.w3.org/2000/svg"
 width="3000.000000pt" height="1000.000000pt" viewBox="0 0 3000.000000 1000.000000"
 preserveAspectRatio="xMidYMid meet">
<metadata>
Created by potrace 1.16, written by Peter Selinger 2001-2019
</metadata>
<g transform="translate(0.000000,1000.000000) scale(0.100000,-0.100000)"
fill="#000000" stroke="none">
<path d="M0 5000 l0 -5000 15000 0 15000 0 0 5000 0 5000 -15000 0 -15000 0 0
-5000z m12515 2454 c202 -22 344 -103 567 -327 166 -166 259 -352 315 -627 22
-109 25 -160 30 -403 6 -258 5 -279 -12 -297 -17 -19 -31 -20 -344 -20 -179 0
-332 4 -339 8 -7 5 -17 35 -22 68 -11 69 -27 84 -87 84 -32 0 -45 5 -53 19 -6
12 -10 98 -11 208 0 118 -5 201 -12 223 -11 32 -16 35 -54 38 -36 3 -47 -2
-83 -34 -49 -45 -57 -58 -81 -143 -49 -169 0 -451 111 -645 63 -110 164 -247
285 -386 249 -287 352 -423 449 -588 47 -82 121 -234 156 -319 31 -80 79 -278
89 -373 25 -225 33 -351 27 -391 -4 -24 -11 -104 -16 -178 -35 -516 -254 -883
-597 -1000 -138 -46 -196 -55 -353 -55 -116 1 -162 5 -230 23 -95 25 -207 67
-230 86 -8 7 -29 20 -46 28 -41 21 -175 148 -278 263 -96 108 -155 207 -209
352 -72 196 -95 387 -96 799 -1 230 0 243 18 253 13 6 138 10 340 10 308 0
322 -1 341 -20 12 -12 20 -33 20 -54 0 -47 22 -66 75 -66 72 0 73 -4 77 -310
3 -234 5 -269 21 -293 40 -61 161 -18 207 74 59 114 58 343 0 519 -43 130 -72
189 -156 312 -74 109 -116 162 -309 388 -272 319 -408 530 -500 775 -60 160
-77 230 -110 470 -29 203 -6 606 45 806 23 92 85 247 128 324 25 44 74 113
110 152 67 75 206 176 258 189 16 4 48 15 71 25 23 11 77 22 120 26 43 3 87
10 98 14 20 9 157 5 270 -7z m2188 2 c132 -13 238 -50 352 -124 116 -75 300
-258 376 -372 173 -260 229 -552 229 -1187 0 -224 -2 -264 -16 -277 -13 -14
-59 -16 -349 -16 -334 0 -334 0 -349 22 -9 12 -16 36 -16 53 0 47 -25 75 -66
75 -21 0 -42 8 -54 20 -19 19 -20 33 -20 281 0 261 -17 456 -42 486 -6 7 -30
13 -53 13 -61 0 -123 -57 -161 -147 l-29 -68 -3 -1308 c-2 -727 1 -1352 6
-1407 11 -120 24 -140 87 -140 33 0 50 7 82 35 92 78 103 144 111 650 l7 399
25 13 c36 18 624 18 660 0 19 -10 26 -22 30 -57 7 -62 15 -70 63 -70 24 0 53
-7 65 -16 l22 -15 0 -347 c0 -759 -59 -1052 -266 -1323 -51 -66 -144 -153
-188 -176 -17 -8 -38 -21 -46 -28 -25 -21 -160 -71 -245 -90 -109 -25 -330
-26 -435 -1 -110 26 -206 64 -285 115 -69 44 -270 238 -346 334 -99 124 -180
328 -221 552 l-23 130 0 1505 0 1505 22 121 c23 128 78 305 120 389 137 270
361 438 619 464 53 6 99 13 103 17 5 5 118 1 234 -10z m-11757 -50 c8 -11 14
-33 14 -49 0 -51 16 -67 65 -67 32 0 51 -6 65 -20 19 -19 20 -33 20 -432 0
-369 -2 -413 -17 -430 -15 -17 -37 -18 -288 -18 -216 0 -275 -3 -284 -13 -8
-10 -12 -560 -13 -1999 -3 -1665 -5 -1988 -17 -2001 -12 -15 -50 -17 -366 -17
-270 0 -355 3 -362 12 -6 7 -13 33 -17 58 -9 59 -30 80 -77 80 -75 0 -69 -175
-69 1947 0 1715 -2 1903 -16 1917 -13 14 -47 16 -213 16 -145 0 -202 3 -215
13 -10 7 -20 32 -23 57 -9 68 -18 80 -63 80 -27 0 -47 7 -60 20 -19 19 -20 33
-20 423 0 424 1 430 45 439 11 3 442 4 958 4 917 -1 939 -1 953 -20z m1025 10
c13 -6 25 -20 27 -31 2 -11 8 -37 13 -57 10 -37 11 -38 57 -38 27 0 57 -6 68
-14 19 -14 19 -37 22 -927 2 -644 6 -916 13 -926 9 -10 48 -13 152 -13 117 0
144 3 159 17 17 15 18 59 18 989 0 851 2 974 15 988 24 23 99 28 413 24 277
-3 294 -4 308 -22 8 -11 14 -31 14 -46 0 -45 24 -67 80 -72 28 -3 57 -11 63
-17 9 -9 13 -577 15 -2438 2 -2163 0 -2429 -13 -2450 l-15 -23 -354 0 c-292 0
-356 2 -365 14 -7 8 -16 38 -20 66 -9 59 -21 70 -73 70 -72 0 -68 -60 -68 935
0 700 -3 895 -13 908 -11 16 -30 17 -167 15 l-155 -3 -5 -985 c-3 -542 -9
-993 -14 -1002 -7 -17 -35 -18 -367 -18 l-359 0 -10 26 c-6 14 -10 40 -10 57
0 49 -13 61 -72 67 -43 4 -55 9 -65 30 -10 20 -13 513 -13 2416 0 1315 3 2406
6 2424 4 19 15 35 28 40 34 14 660 10 687 -4z m3529 -2 c7 -6 14 -31 17 -55 8
-59 18 -69 67 -69 23 0 51 -6 62 -14 18 -14 19 -30 19 -436 0 -406 -1 -422
-19 -436 -17 -12 -100 -14 -491 -14 -353 0 -474 -3 -483 -12 -9 -9 -12 -124
-12 -454 l0 -443 22 -15 c19 -14 66 -16 310 -16 285 0 287 0 302 -22 9 -12 16
-35 16 -50 0 -37 25 -58 70 -58 22 0 47 -8 61 -19 l24 -19 0 -412 0 -412 -24
-19 c-22 -18 -44 -19 -390 -19 -272 0 -370 -3 -379 -12 -9 -9 -12 -134 -12
-499 0 -430 2 -489 16 -503 13 -14 65 -16 414 -16 l399 0 15 -22 c9 -12 16
-37 16 -55 0 -44 23 -63 75 -63 77 0 75 12 75 -442 0 -233 -4 -407 -10 -422
l-10 -26 -859 0 c-675 0 -861 3 -868 13 -6 6 -13 34 -16 61 -6 60 -24 76 -84
76 -32 0 -45 5 -53 19 -16 31 -14 4852 3 4874 6 9 30 18 52 20 22 2 405 4 852
3 589 -1 815 -4 823 -12z m1410 6 c41 -5 115 -14 163 -20 184 -23 317 -95 504
-274 218 -210 289 -345 349 -671 16 -85 18 -154 19 -450 0 -321 -2 -360 -22
-470 -39 -207 -97 -349 -193 -475 -27 -36 -49 -72 -50 -80 0 -9 16 -30 35 -49
60 -56 102 -113 143 -196 121 -241 152 -430 152 -936 0 -179 -5 -375 -11 -435
-54 -557 -276 -867 -699 -976 -82 -21 -108 -22 -658 -26 -435 -3 -577 -1 -588
8 -8 7 -14 30 -14 54 0 61 -22 86 -73 86 -23 0 -49 5 -57 10 -13 8 -15 290
-18 2417 -1 1324 0 2423 3 2441 4 21 14 36 28 42 29 12 891 12 987 0z m2070
-10 c5 -8 12 -33 16 -55 9 -55 20 -65 68 -65 23 0 51 -6 62 -14 19 -14 19 -50
19 -2438 0 -1333 -3 -2435 -8 -2450 l-7 -28 -358 0 c-265 0 -361 3 -370 12 -7
7 -12 30 -12 53 0 58 -18 78 -76 84 -39 5 -51 11 -61 31 -17 33 -19 4800 -2
4848 6 19 19 33 32 35 12 3 172 4 355 3 282 -1 334 -3 342 -16z m5650 0 c5 -8
12 -33 16 -55 9 -55 20 -65 68 -65 23 0 51 -6 62 -14 19 -14 19 -48 24 -1913
4 -1327 9 -1909 17 -1933 22 -70 22 -70 76 -70 47 0 54 3 97 48 28 29 53 68
65 102 20 54 20 93 25 1965 3 1051 9 1918 13 1927 5 10 24 20 42 24 46 8 641
1 651 -8 4 -4 11 -31 15 -59 10 -60 19 -69 74 -69 51 0 63 -9 75 -51 13 -45
13 -3542 0 -3778 -5 -96 -16 -208 -25 -250 -8 -42 -18 -98 -23 -126 -16 -86
-86 -268 -136 -353 -61 -104 -157 -208 -254 -274 -145 -100 -295 -142 -507
-142 -214 -1 -368 40 -513 136 -84 56 -314 284 -368 365 -123 186 -193 415
-214 699 -5 74 -10 924 -10 2000 0 1481 3 1874 13 1886 18 24 40 26 390 24
269 -1 319 -3 327 -16z m2345 8 c4 -4 12 -33 19 -65 l11 -58 58 -5 c36 -3 62
-11 67 -20 11 -17 14 -4867 4 -4894 -5 -14 -47 -16 -363 -16 -264 0 -360 3
-369 12 -7 7 -12 30 -12 53 0 58 -18 78 -76 84 -39 5 -51 11 -61 31 -10 20
-12 509 -10 2443 2 2402 2 2419 22 2433 17 12 75 14 362 12 188 -2 344 -6 348
-10z m2285 -8 c5 -8 12 -31 15 -50 10 -56 18 -65 73 -70 28 -3 57 -11 64 -18
10 -10 13 -106 13 -433 0 -405 -1 -421 -19 -435 -16 -11 -73 -14 -292 -14
-215 0 -274 -3 -283 -13 -8 -10 -12 -559 -13 -2006 -3 -1758 -5 -1993 -18
-2001 -9 -6 -163 -10 -367 -10 -338 0 -353 1 -363 19 -5 11 -10 36 -10 55 0
49 -28 76 -80 76 -29 0 -42 5 -50 19 -7 13 -10 631 -10 1925 0 1718 -2 1906
-16 1920 -13 14 -47 16 -212 16 -227 0 -242 4 -242 68 0 52 -23 82 -64 82 -18
0 -41 6 -52 14 -18 14 -19 32 -22 403 -1 213 0 403 3 421 4 21 14 36 28 42 12
5 430 8 965 7 826 -2 944 -4 952 -17z m1259 -4 c12 -11 21 -29 21 -42 0 -54
15 -71 70 -76 28 -3 56 -10 62 -16 11 -11 38 -172 58 -347 13 -114 37 -311 55
-440 22 -160 44 -338 55 -435 5 -47 14 -116 20 -155 6 -38 24 -178 40 -311 16
-132 32 -248 36 -258 4 -9 13 -15 20 -12 31 12 10 -264 -26 -346 -10 -24 -21
-72 -24 -108 -11 -101 -28 -214 -36 -229 -4 -8 -10 16 -14 55 -4 38 -13 105
-21 149 -8 44 -16 112 -20 150 -3 39 -10 93 -15 120 -5 28 -14 97 -20 155 -5
58 -17 150 -25 205 -15 110 -28 216 -50 405 -7 69 -18 145 -23 170 -6 25 -13
81 -17 125 -3 44 -12 125 -20 180 -26 185 -36 259 -50 383 -8 68 -21 172 -29
230 -8 59 -18 133 -21 165 -4 31 -17 84 -31 117 -13 33 -24 71 -24 84 0 55 -7
56 -468 56 -366 0 -423 -2 -428 -15 -9 -23 -24 -18 -24 9 0 26 14 41 45 49 11
3 214 4 451 3 410 -1 433 -2 453 -20z m1613 13 c33 -8 38 -14 43 -47 12 -72
20 -82 68 -82 23 0 53 -7 65 -16 l22 -15 0 -2430 c0 -1656 -3 -2436 -10 -2450
-10 -18 -25 -19 -350 -19 -339 0 -339 0 -354 22 -9 12 -16 39 -16 60 0 42 -27
68 -72 68 -32 0 -58 23 -58 52 0 20 1 20 18 5 11 -10 35 -17 58 -17 22 0 57
-9 79 -20 36 -18 59 -20 270 -20 127 0 237 5 245 10 13 8 15 281 18 2337 2
2308 2 2329 -18 2387 -11 33 -20 70 -20 82 0 54 3 54 -447 54 -374 0 -418 -2
-435 -17 -10 -9 -21 -14 -24 -11 -11 12 10 60 30 68 30 12 842 11 888 -1z
m1976 -12 c11 -10 22 -35 26 -56 7 -47 19 -57 76 -64 24 -3 49 -12 55 -20 10
-13 20 -83 71 -482 7 -60 21 -164 30 -230 9 -66 20 -158 25 -205 4 -47 15
-134 23 -195 21 -147 44 -332 56 -430 5 -44 16 -134 24 -200 9 -66 23 -174 31
-240 9 -66 23 -174 31 -240 9 -66 19 -154 24 -195 13 -114 38 -312 55 -435 8
-60 20 -148 25 -195 5 -47 19 -155 30 -240 11 -85 27 -209 35 -275 7 -66 21
-174 29 -240 20 -147 39 -296 66 -520 12 -93 30 -232 41 -308 22 -159 24 -248
7 -265 -9 -9 -105 -12 -370 -12 -398 0 -367 -5 -382 70 -8 44 -42 80 -76 80
-25 0 -50 16 -50 32 0 16 96 7 139 -12 39 -18 65 -20 301 -20 226 0 259 2 264
16 9 23 6 141 -4 199 -9 49 -19 120 -41 288 -42 329 -52 416 -64 522 -8 66
-18 154 -24 195 -17 125 -32 239 -46 365 -7 66 -18 147 -23 180 -6 33 -13 89
-17 125 -3 36 -12 112 -20 170 -19 138 -46 348 -56 430 -19 170 -49 407 -58
458 -5 32 -12 93 -16 137 -3 44 -10 100 -15 125 -6 25 -17 108 -26 185 -30
270 -43 378 -81 650 -8 61 -19 160 -24 220 -4 61 -15 139 -23 175 -8 36 -17
104 -20 152 -4 62 -12 97 -26 121 -12 19 -23 58 -27 87 -5 43 -10 53 -30 61
-13 5 -220 9 -462 9 -455 0 -461 -1 -461 -42 0 -10 -4 -18 -9 -18 -10 0 5 81
17 92 16 14 67 16 498 15 420 -2 453 -3 472 -20z m1777 1 c13 -10 29 -35 36
-56 17 -52 27 -62 66 -62 59 0 75 -27 106 -185 16 -77 49 -237 74 -355 25
-118 51 -246 59 -285 7 -38 22 -113 34 -165 11 -52 27 -126 35 -165 25 -117
33 -145 44 -159 16 -19 30 -237 19 -300 -23 -132 -26 -173 -22 -255 2 -49 0
-99 -5 -112 l-9 -24 -11 28 c-6 16 -11 40 -11 55 0 15 -4 43 -10 62 -5 19 -16
71 -25 115 -8 44 -24 123 -35 175 -12 52 -27 127 -34 165 -7 39 -18 86 -24
105 -6 19 -15 62 -21 95 -16 91 -30 160 -52 265 -11 52 -27 124 -34 160 -17
86 -52 252 -66 315 -6 28 -15 75 -20 105 -6 30 -17 82 -24 115 -8 33 -17 78
-21 100 -4 22 -15 54 -26 72 -10 17 -25 53 -33 80 -26 89 1 84 -449 81 -218
-2 -396 0 -396 3 0 13 27 38 45 42 11 2 192 4 403 4 359 0 384 -1 407 -19z
m1098 13 c48 -12 48 -11 54 -63 8 -58 18 -68 69 -68 31 0 50 -6 64 -20 20 -20
20 -33 20 -2449 0 -2195 -2 -2431 -16 -2445 -13 -14 -61 -16 -368 -16 -398 0
-376 -5 -395 80 -10 46 -32 70 -64 70 -32 0 -55 19 -67 56 -15 46 -7 54 16 15
15 -25 25 -31 54 -31 19 0 49 -9 65 -20 28 -19 47 -20 301 -20 219 0 274 3
283 14 9 10 12 610 12 2348 1 2116 -1 2338 -15 2372 -9 21 -16 52 -16 69 0 17
-7 39 -17 49 -15 17 -37 18 -290 18 -170 0 -282 -4 -294 -10 -16 -9 -19 -7
-19 8 0 22 16 38 45 45 36 9 539 7 578 -2z m-5772 -151 c-9 -24 -10 -24 -10 7
-1 17 2 40 7 50 6 15 7 14 10 -7 2 -14 -2 -37 -7 -50z m-785 54 c15 -4 23 -19
33 -64 17 -75 9 -102 -10 -31 -10 40 -19 55 -37 62 -38 15 -705 11 -725 -3
-16 -12 -17 -160 -15 -2328 l3 -2315 219 -3 c140 -1 223 1 230 8 16 16 26 12
26 -10 0 -37 -30 -41 -276 -38 -195 2 -236 6 -244 18 -6 9 -9 891 -7 2350 l2
2334 25 13 c19 10 116 13 390 13 201 0 374 -3 386 -6z m1638 -4 c14 -5 26 -17
26 -26 0 -13 -5 -15 -22 -8 -32 12 -710 17 -740 5 -23 -9 -26 -18 -42 -143
-10 -73 -22 -180 -27 -238 -5 -58 -13 -130 -19 -160 -6 -30 -15 -107 -19 -170
-5 -63 -17 -151 -25 -195 -9 -44 -16 -107 -16 -140 0 -33 -9 -107 -20 -165
-11 -58 -20 -132 -20 -165 0 -33 -7 -98 -16 -145 -8 -47 -19 -132 -24 -190 -5
-58 -14 -139 -20 -180 -6 -41 -15 -115 -20 -165 -5 -49 -18 -166 -30 -260 -11
-93 -25 -213 -30 -265 -5 -52 -14 -129 -20 -170 -6 -41 -15 -120 -20 -175 -10
-118 -15 -151 -46 -302 -10 -49 -76 -18 -73 34 1 17 2 17 6 1 9 -35 21 -17 32
50 7 37 14 81 17 97 3 17 9 77 14 135 5 58 14 136 20 173 5 37 15 114 20 170
10 97 15 138 40 342 6 50 15 131 20 180 5 50 14 124 20 165 6 41 15 122 20
180 5 58 16 143 24 190 9 47 16 112 16 145 0 33 9 109 20 169 11 60 20 137 20
170 0 34 7 93 15 131 9 39 20 126 25 195 5 69 14 147 20 175 6 27 15 101 20
165 6 63 18 176 28 250 l17 135 30 6 c50 11 751 10 779 -1z m1950 0 c16 -6 26
-17 26 -30 0 -24 -4 -25 -34 -5 -21 14 -74 16 -401 13 -432 -3 -405 3 -405
-98 0 -31 -9 -106 -20 -166 -11 -60 -20 -131 -20 -159 0 -27 -9 -99 -20 -159
-11 -60 -20 -130 -20 -155 0 -25 -7 -84 -16 -131 -8 -47 -19 -128 -24 -180 -9
-94 -31 -275 -49 -400 -16 -103 -42 -327 -51 -425 -5 -49 -15 -124 -24 -165
-9 -41 -16 -100 -16 -130 0 -30 -7 -89 -15 -130 -8 -41 -20 -127 -25 -190 -5
-63 -17 -146 -25 -185 -8 -38 -15 -95 -15 -125 0 -30 -9 -102 -20 -160 -11
-58 -20 -127 -20 -155 0 -27 -7 -88 -16 -135 -8 -47 -19 -125 -24 -175 -5 -49
-19 -162 -30 -250 -12 -88 -25 -198 -30 -245 -5 -47 -14 -116 -20 -155 -6 -38
-15 -113 -20 -165 -5 -52 -14 -122 -21 -155 -13 -71 -27 -235 -21 -252 3 -10
58 -13 227 -13 123 0 230 3 239 6 11 4 16 19 16 51 0 24 4 42 8 39 15 -9 2
-110 -16 -124 -22 -17 -505 -13 -522 4 -11 11 1 197 20 309 6 33 15 103 20
155 6 52 14 127 20 165 6 39 15 111 21 160 16 140 26 223 39 310 6 44 15 121
21 170 5 50 14 117 19 150 5 33 14 107 20 165 5 58 14 128 20 155 6 28 15 100
20 160 5 61 14 130 20 155 6 25 15 95 20 155 5 61 14 133 20 160 6 28 15 97
20 155 5 58 15 132 20 165 6 33 15 101 20 150 5 50 14 122 20 160 6 39 15 108
20 155 15 131 29 248 40 325 6 39 14 111 20 160 5 50 14 122 20 160 6 39 15
113 21 165 5 52 13 120 19 150 6 30 14 102 20 160 5 58 16 141 24 185 9 44 16
107 16 140 0 67 17 101 53 108 47 9 787 7 811 -3z m1782 4 c24 -6 42 -50 49
-119 4 -47 4 -48 -6 -15 -6 19 -13 47 -16 61 -3 15 -16 31 -29 38 -17 7 -127
11 -329 11 -292 0 -306 -1 -325 -20 -20 -20 -20 -33 -20 -2311 0 -1560 3
-2296 10 -2310 10 -18 23 -19 236 -19 190 0 226 2 230 15 8 20 24 9 24 -16 0
-35 -42 -40 -288 -37 -218 3 -235 4 -248 22 -12 17 -14 353 -14 2341 0 2423
-1 2343 40 2358 20 7 659 8 686 1z m1122 0 c14 -4 22 -13 19 -23 -2 -9 -10
-14 -18 -11 -8 3 -112 5 -232 5 -183 0 -219 -2 -227 -15 -7 -10 -9 -499 -8
-1340 1 -1431 3 -1395 -51 -1361 -12 8 -13 14 -3 36 9 20 12 349 12 1365 l0
1339 28 4 c44 7 455 7 480 1z m-3804 -103 c-4 -17 -9 -30 -11 -27 -3 2 -2 19
2 36 9 41 17 33 9 -9z m933 -28 c-3 -10 -5 -2 -5 17 0 19 2 27 5 18 2 -10 2
-26 0 -35z m-2844 2 c-7 -21 -13 -19 -13 6 0 11 4 18 10 14 5 -3 7 -12 3 -20z
m-715 -155 c0 -44 -1 -43 -14 20 -17 82 -16 117 1 65 8 -22 13 -60 13 -85z
m5392 25 c0 -8 -4 -17 -10 -20 -6 -4 -10 5 -10 20 0 15 4 24 10 20 6 -3 10
-12 10 -20z m-4699 -27 c-3 -21 -6 -26 -9 -15 -3 17 3 47 11 47 2 0 1 -15 -2
-32z m1906 -20 c-2 -13 -4 -5 -4 17 -1 22 1 32 4 23 2 -10 2 -28 0 -40z m980
-25 c-3 -10 -5 -4 -5 12 0 17 2 24 5 18 2 -7 2 -21 0 -30z m1820 -15 c-2 -13
-4 -5 -4 17 -1 22 1 32 4 23 2 -10 2 -28 0 -40z m-5388 -53 c1 -17 -1 -17 -9
-5 -5 8 -9 26 -9 40 0 23 1 23 9 5 5 -11 9 -29 9 -40z m674 2 c-3 -20 -10 -37
-15 -37 -6 0 -8 10 -4 23 3 12 6 33 6 47 0 15 3 21 10 14 5 -5 7 -26 3 -47z
m1909 18 c-2 -14 -9 -25 -14 -25 -6 0 -7 7 -4 16 3 9 6 22 6 30 0 9 4 13 9 10
4 -3 6 -17 3 -31z m1005 -62 c-3 -10 -5 -2 -5 17 0 19 2 27 5 18 2 -10 2 -26
0 -35z m1824 -16 c-8 -8 -11 -3 -11 19 1 25 2 27 11 11 8 -14 8 -22 0 -30z
m16 -89 c-2 -13 -4 -5 -4 17 -1 22 1 32 4 23 2 -10 2 -28 0 -40z m-5401 -36
c4 -26 3 -42 -3 -42 -11 0 -23 47 -23 89 1 37 17 7 26 -47z m621 46 c-3 -8 -6
-5 -6 6 -1 11 2 17 5 13 3 -3 4 -12 1 -19z m1892 -142 c-9 -8 -10 -3 -5 23 3
18 7 41 8 50 1 9 3 -1 5 -23 3 -22 -1 -43 -8 -50z m2921 49 c0 -8 -4 -17 -10
-20 -6 -4 -10 5 -10 20 0 15 4 24 10 20 6 -3 10 -12 10 -20z m-4821 -32 c-5
-27 -9 -55 -8 -63 3 -31 -1 -50 -10 -50 -11 0 -3 102 10 138 14 36 17 25 8
-25z m2974 32 c4 -8 2 -17 -3 -20 -6 -4 -10 3 -10 14 0 25 6 27 13 6z m-3573
-75 c0 -20 -2 -22 -10 -10 -5 8 -10 26 -10 40 0 20 2 22 10 10 5 -8 10 -26 10
-40z m5427 -42 c-2 -13 -4 -5 -4 17 -1 22 1 32 4 23 2 -10 2 -28 0 -40z
m-1840 -15 c-3 -10 -5 -2 -5 17 0 19 2 27 5 18 2 -10 2 -26 0 -35z m1864 -70
c-9 -16 -10 -14 -11 12 0 21 3 26 11 18 8 -8 8 -16 0 -30z m-5421 -92 c0 -41
-18 -10 -25 39 l-5 45 14 -30 c9 -16 15 -41 16 -54z m537 7 c-3 -7 -5 -2 -5
12 0 14 2 19 5 13 2 -7 2 -19 0 -25z m1892 -62 c-9 -8 -10 -3 -5 23 3 18 7 41
8 50 1 9 3 -1 5 -23 3 -22 -1 -43 -8 -50z m3011 26 c-7 -13 -9 -8 -9 23 0 35
1 37 10 17 6 -15 5 -30 -1 -40z m-2386 -4 c9 -12 16 -41 16 -63 0 -22 7 -87
16 -145 8 -58 19 -154 24 -215 5 -60 16 -150 24 -200 9 -49 16 -113 16 -142 0
-28 9 -105 20 -170 11 -65 20 -143 20 -173 0 -30 7 -93 16 -140 8 -47 20 -137
25 -200 5 -63 13 -142 19 -175 5 -33 14 -107 20 -165 5 -58 16 -157 25 -220 8
-63 15 -147 15 -187 0 -61 -3 -74 -19 -83 -29 -15 -533 -14 -549 2 -7 7 -12
14 -12 17 0 4 112 5 249 3 151 -2 257 1 268 7 20 10 19 48 -7 256 -6 44 -14
125 -20 180 -5 55 -14 132 -20 170 -6 39 -15 120 -20 180 -6 61 -14 137 -20
170 -5 33 -14 110 -20 170 -5 61 -14 135 -20 165 -5 30 -14 109 -20 175 -5 66
-15 147 -20 180 -6 33 -15 107 -20 165 -6 58 -14 134 -20 170 -5 36 -12 104
-16 153 -4 48 -11 87 -15 87 -5 0 -15 -12 -23 -27 -11 -21 -15 -23 -16 -10 0
24 26 74 42 80 22 9 26 8 42 -15z m523 0 c-3 -8 -6 -5 -6 6 -1 11 2 17 5 13 3
-3 4 -12 1 -19z m-3567 -55 c8 -34 7 -36 -6 -19 -8 11 -14 31 -14 45 0 33 10
21 20 -26z m525 10 c-4 -16 -11 -44 -15 -63 -8 -34 -8 -34 -9 12 -1 51 6 78
21 78 6 0 7 -11 3 -27z m4926 -16 c-8 -8 -11 -3 -11 19 1 25 2 27 11 11 8 -14
8 -22 0 -30z m-1864 -79 c-2 -13 -4 -5 -4 17 -1 22 1 32 4 23 2 -10 2 -28 0
-40z m1889 -35 c-3 -3 1 -17 8 -32 7 -14 11 -32 8 -40 -6 -17 -32 55 -32 89 1
22 2 23 11 7 6 -10 8 -21 5 -24z m-5447 -124 c12 -73 14 -95 5 -86 -6 5 -34
150 -33 172 0 28 19 -30 28 -86z m2358 4 c-2 -16 -4 -3 -4 27 0 30 2 43 4 28
2 -16 2 -40 0 -55z m560 -5 c-2 -13 -4 -3 -4 22 0 25 2 35 4 23 2 -13 2 -33 0
-45z m-2461 -36 c-12 -11 -15 5 -8 44 l7 39 3 -39 c2 -21 1 -41 -2 -44z m3121
26 c-3 -7 -5 -2 -5 12 0 14 2 19 5 13 2 -7 2 -19 0 -25z m1913 -53 c0 -8 -4
-17 -10 -20 -6 -4 -10 5 -10 20 0 15 4 24 10 20 6 -3 10 -12 10 -20z m-5045
-62 c-3 -25 -9 -42 -12 -39 -3 3 -2 31 2 63 5 32 10 50 13 39 2 -10 1 -38 -3
-63z m1902 55 c-3 -8 -6 -5 -6 6 -1 11 2 17 5 13 3 -3 4 -12 1 -19z m556 -39
c-8 -29 -13 -23 -13 14 0 22 3 28 9 18 5 -7 6 -22 4 -32z m2597 -19 c0 -16 -2
-30 -4 -30 -2 0 -6 14 -8 30 -3 17 -1 30 4 30 4 0 8 -13 8 -30z m-1903 -32
c-2 -13 -4 -5 -4 17 -1 22 1 32 4 23 2 -10 2 -28 0 -40z m1477 -20 c9 -12 16
-32 16 -43 0 -11 8 -58 19 -105 19 -79 30 -129 82 -377 11 -54 27 -127 35
-163 8 -36 19 -87 24 -115 5 -27 18 -93 29 -145 12 -52 26 -120 31 -150 6 -30
17 -82 24 -115 8 -33 24 -107 36 -165 12 -58 30 -145 40 -195 11 -49 29 -135
40 -190 12 -55 30 -143 41 -195 20 -95 31 -149 69 -335 11 -55 27 -129 35
-165 8 -36 23 -112 35 -170 12 -58 28 -132 36 -165 7 -33 18 -87 23 -120 5
-33 14 -72 19 -86 6 -14 13 -51 17 -83 7 -51 36 -150 49 -163 7 -7 510 -6 534
1 18 6 22 3 22 -12 0 -11 -7 -23 -16 -26 -20 -8 -542 -8 -570 0 -25 7 -64 111
-64 173 0 23 -4 49 -9 59 -18 36 -31 90 -31 130 0 23 -4 50 -9 60 -19 37 -31
90 -31 135 0 25 -4 48 -9 51 -5 3 -12 23 -15 43 -15 86 -25 141 -36 183 -6 25
-13 63 -16 85 -3 22 -9 49 -14 60 -5 11 -11 38 -14 60 -2 22 -10 60 -16 85 -6
25 -15 68 -20 95 -5 28 -14 70 -20 95 -11 42 -21 93 -36 183 -3 20 -10 40 -15
43 -5 3 -9 26 -9 52 0 26 -8 67 -17 92 -9 25 -20 70 -24 100 -4 30 -13 75 -19
100 -6 25 -15 68 -20 95 -5 28 -14 70 -20 95 -6 25 -13 63 -16 85 -3 22 -9 49
-14 60 -5 11 -11 38 -14 60 -3 22 -10 60 -16 85 -11 42 -21 97 -36 183 -3 20
-10 40 -15 43 -5 3 -9 26 -9 52 0 26 -9 72 -20 102 -11 30 -20 74 -20 97 0 24
-4 51 -9 61 -18 37 -31 90 -31 133 0 25 -4 49 -8 55 -9 9 -29 96 -35 144 -1
14 -8 24 -15 23 -18 -4 -14 25 6 36 24 15 29 14 46 -11z m-2753 -93 l-9 -50
-1 46 c0 25 2 49 6 52 11 12 12 3 4 -48z m3200 8 c-9 -16 -10 -14 -11 12 0 21
3 26 11 18 8 -8 8 -16 0 -30z m-5488 5 c11 -46 19 -143 12 -136 -4 4 -11 29
-16 55 -4 27 -10 60 -14 76 -4 16 -3 27 3 27 5 0 12 -10 15 -22z m-448 -10
c22 -99 45 -237 45 -268 0 -21 9 -91 20 -155 11 -64 20 -138 20 -163 0 -26 7
-83 16 -127 9 -44 20 -125 25 -180 5 -55 13 -122 19 -150 5 -27 14 -97 20
-155 5 -58 14 -130 20 -160 6 -30 14 -95 19 -145 5 -49 16 -144 25 -210 9 -66
21 -156 26 -200 6 -44 18 -134 26 -200 9 -66 20 -163 25 -215 4 -52 13 -120
19 -150 6 -30 15 -102 20 -160 6 -58 14 -125 20 -150 5 -25 14 -94 20 -155 5
-60 15 -132 22 -160 l13 -50 242 -3 c234 -2 242 -2 261 19 13 13 22 17 27 10
11 -19 -6 -52 -32 -62 -13 -5 -133 -9 -266 -9 -199 0 -246 3 -264 15 -26 19
-42 84 -53 225 -5 58 -16 139 -24 180 -9 41 -16 98 -16 125 0 28 -9 111 -19
185 -11 74 -29 212 -41 305 -11 94 -25 202 -30 240 -5 39 -14 115 -21 170 -6
55 -13 103 -15 106 -2 3 -8 55 -13 115 -6 60 -17 152 -25 204 -8 52 -20 133
-25 180 -6 47 -15 123 -21 170 -6 47 -20 153 -30 235 -11 83 -24 186 -30 230
-29 214 -42 328 -47 418 -3 62 -9 97 -17 97 -12 0 14 20 26 20 4 0 10 -10 13
-22z m824 -122 c-9 -8 -10 -3 -5 23 3 18 7 50 8 70 1 20 3 10 5 -23 3 -37 0
-63 -8 -70z m528 93 c10 -19 13 -363 13 -1571 l0 -1548 23 -5 c13 -4 132 -5
265 -3 185 2 242 0 242 -9 0 -30 -42 -34 -298 -31 -141 2 -263 7 -269 11 -10
7 -13 331 -13 1568 0 1379 -2 1559 -15 1559 -19 0 -19 10 1 38 19 27 34 24 51
-9z m2680 -16 c-3 -10 -5 -4 -5 12 0 17 2 24 5 18 2 -7 2 -21 0 -30z m-736
-20 c-9 -15 -10 -12 -10 17 0 29 1 32 10 18 7 -12 7 -24 0 -35z m2656 -5 c-2
-13 -4 -5 -4 17 -1 22 1 32 4 23 2 -10 2 -28 0 -40z m-2554 -15 c3 -21 9 -69
12 -108 17 -186 32 -278 58 -345 16 -42 22 -83 25 -175 2 -66 7 -124 13 -129
15 -16 11 -23 -13 -22 -25 1 -24 6 -63 -329 -9 -82 -23 -199 -30 -260 -9 -76
-10 -114 -3 -122 7 -8 37 -13 81 -13 59 0 75 4 94 22 l23 21 0 -31 c0 -54 -19
-62 -139 -62 -95 0 -110 2 -126 20 -14 15 -31 20 -72 20 -39 0 -55 4 -60 15
-3 9 -1 57 5 108 6 51 16 139 22 197 6 58 17 152 25 210 8 58 17 139 20 180 4
41 12 116 20 165 7 50 16 131 20 180 4 50 11 108 15 130 5 22 14 101 20 175
10 128 23 190 40 190 4 0 10 -17 13 -37z m-672 -16 c-8 -8 -11 -5 -11 9 0 27
14 41 18 19 2 -9 -1 -22 -7 -28z m551 -79 c-10 -22 -11 -21 -11 12 -1 26 2 31
11 22 8 -8 8 -17 0 -34z m2708 7 c0 -8 -4 -17 -10 -20 -6 -4 -10 5 -10 20 0
15 4 24 10 20 6 -3 10 -12 10 -20z m-5169 -42 c-9 -15 -10 -13 -11 13 0 17 3
34 8 38 11 12 14 -32 3 -51z m3236 -25 c-2 -13 -4 -3 -4 22 0 25 2 35 4 23 2
-13 2 -33 0 -45z m1940 -20 c-2 -13 -4 -5 -4 17 -1 22 1 32 4 23 2 -10 2 -28
0 -40z m-4716 -11 c-8 -8 -11 -4 -11 14 0 33 14 47 18 19 2 -12 -1 -27 -7 -33z
m-785 -47 c5 -24 3 -32 -4 -25 -5 6 -13 26 -17 45 -5 25 -4 32 4 25 6 -6 14
-26 17 -45z m2204 -25 c0 -25 -3 -45 -8 -45 -4 0 -6 20 -4 45 2 25 6 45 8 45
2 0 4 -20 4 -45z m-1896 -37 c-3 -40 -11 -77 -16 -83 -9 -9 -7 28 8 123 9 60
15 32 8 -40z m457 -11 c-13 -13 -15 31 -3 60 5 14 8 10 10 -16 2 -18 -1 -38
-7 -44z m2820 16 c-9 -15 -10 -12 -10 17 0 29 1 32 10 18 7 -12 7 -24 0 -35z
m1949 22 c0 -8 -4 -17 -10 -20 -6 -4 -10 5 -10 20 0 15 4 24 10 20 6 -3 10
-12 10 -20z m-5522 -75 c1 -23 0 -23 -8 -5 -5 11 -8 34 -8 50 0 29 0 29 8 5 4
-14 8 -36 8 -50z m2753 23 c-9 -15 -10 -12 -10 17 0 29 1 32 10 18 7 -12 7
-24 0 -35z m2776 -65 c-2 -13 -4 -3 -4 22 0 25 2 35 4 23 2 -13 2 -33 0 -45z
m-2795 -62 c-9 -18 -11 -16 -11 19 0 33 1 37 10 21 8 -12 8 -25 1 -40z m858
-43 c-7 -24 -8 -21 -9 22 0 38 2 45 9 28 5 -12 5 -34 0 -50z m1424 -36 c7 -12
17 -45 20 -74 4 -29 13 -71 21 -94 8 -23 15 -59 15 -81 0 -21 6 -54 14 -72 7
-18 17 -51 21 -74 3 -22 15 -48 25 -57 13 -12 21 -38 25 -83 4 -37 14 -82 21
-101 8 -18 14 -60 14 -92 0 -48 -3 -57 -15 -53 -13 5 -15 -110 -15 -1001 0
-674 -3 -1013 -10 -1026 -10 -18 -25 -19 -334 -19 -260 0 -326 3 -335 14 -6 7
-14 34 -17 59 -8 55 -22 69 -77 76 -30 4 -43 11 -45 25 -4 17 2 18 61 14 43
-2 72 -10 85 -21 16 -15 46 -17 243 -17 162 0 228 3 237 12 9 9 12 332 13
1387 1 825 5 1361 10 1338 5 -20 15 -47 23 -60z m537 56 c-9 -16 -10 -14 -11
12 0 21 3 26 11 18 8 -8 8 -16 0 -30z m-4820 -50 c-9 -16 -10 -15 -11 8 0 14
3 29 8 33 12 12 14 -22 3 -41z m-707 -5 c3 -13 6 -30 6 -38 -1 -13 -2 -13 -9
0 -16 27 -22 60 -13 60 5 0 12 -10 16 -22z m2129 -30 c-8 -46 -13 -48 -13 -5
0 21 4 37 10 37 5 0 7 -14 3 -32z m3419 9 c3 -13 1 -32 -3 -43 -5 -13 -8 -7
-8 24 -1 46 4 55 11 19z m-1965 -44 c-3 -10 -5 -2 -5 17 0 19 2 27 5 18 2 -10
2 -26 0 -35z m-2896 -66 c-13 -13 -14 5 -3 54 l7 34 3 -39 c2 -21 -1 -43 -7
-49z m-673 -12 c0 -29 0 -29 -8 -5 -4 14 -8 39 -8 55 0 29 0 29 8 5 4 -14 8
-38 8 -55z m2673 8 c-9 -15 -10 -12 -10 17 0 29 1 32 10 18 7 -12 7 -24 0 -35z
m2881 5 c-10 -22 -11 -21 -11 12 -1 26 2 31 11 22 8 -8 8 -17 0 -34z m19 -120
c-9 -20 -10 -18 -10 17 0 31 2 36 9 23 6 -10 7 -25 1 -40z m-2920 -20 c-9 -32
-9 -31 -10 17 0 38 2 46 10 33 6 -11 6 -29 0 -50z m936 -10 c-2 -13 -4 -3 -4
22 0 25 2 35 4 23 2 -13 2 -33 0 -45z m-2931 -45 c-14 -26 -15 -26 -16 -6 0
12 6 35 13 50 11 25 12 26 15 6 2 -12 -4 -34 -12 -50z m-630 -3 c5 -24 3 -32
-4 -25 -5 6 -13 26 -17 45 -5 25 -4 32 4 25 6 -6 14 -26 17 -45z m2045 -3
c-13 -13 -15 11 -4 40 7 16 8 15 11 -6 2 -13 -1 -28 -7 -34z m3523 37 c3 -9 2
-23 -4 -32 -9 -16 -9 -16 -10 0 0 9 -3 23 -6 32 -3 9 -2 16 4 16 5 0 13 -7 16
-16z m-1987 -86 c-2 -13 -4 -5 -4 17 -1 22 1 32 4 23 2 -10 2 -28 0 -40z
m-3569 -98 c0 -32 -1 -33 -8 -10 -4 14 -8 41 -8 60 0 32 1 33 8 10 4 -14 8
-41 8 -60z m593 -1 l-9 -34 -1 35 c0 19 3 46 7 60 l7 25 3 -26 c2 -15 -1 -42
-7 -60z m4982 45 c-2 -6 0 -15 6 -19 6 -3 11 -23 10 -43 l-1 -37 -10 35 c-15
56 -21 107 -10 91 6 -8 8 -20 5 -27z m-2982 -31 c-9 -16 -10 -14 -11 12 0 21
3 26 11 18 8 -8 8 -16 0 -30z m-3122 -133 c5 -47 17 -145 26 -218 8 -74 20
-166 26 -205 5 -40 12 -94 15 -122 13 -133 37 -266 59 -323 25 -61 42 -200 50
-402 2 -71 2 -72 -4 -15 -14 129 -21 0 -24 -451 -2 -373 -5 -464 -16 -477 -12
-15 -48 -17 -332 -17 -358 0 -331 -6 -342 80 -6 50 -26 70 -71 70 -41 0 -53 9
-62 45 -7 29 -7 30 13 13 12 -12 36 -18 64 -18 26 0 57 -8 77 -20 30 -18 50
-20 250 -20 156 0 221 3 230 12 9 9 12 262 12 1078 0 1092 3 1201 29 990z
m2538 38 c-3 -8 -6 -5 -6 6 -1 11 2 17 5 13 3 -3 4 -12 1 -19z m1580 -30 c-2
-13 -4 -5 -4 17 -1 22 1 32 4 23 2 -10 2 -28 0 -40z m-3558 -63 c-1 -15 -4
-13 -14 10 -8 17 -14 39 -14 50 1 15 4 13 14 -10 8 -16 14 -39 14 -50z m1968
43 c-3 -7 -5 -2 -5 12 0 14 2 19 5 13 2 -7 2 -19 0 -25z m570 -35 c-2 -16 -4
-5 -4 22 0 28 2 40 4 28 2 -13 2 -35 0 -50z m-1988 -15 c-18 -33 -24 -4 -8 35
12 28 14 29 17 10 2 -12 -2 -32 -9 -45z m91 -428 c0 -327 4 -458 13 -478 17
-39 16 -625 -2 -646 -19 -22 -37 -127 -62 -351 -12 -110 -28 -215 -35 -232
l-13 -33 -334 0 c-370 0 -353 -3 -364 67 -9 59 -20 72 -65 79 -44 7 -78 34
-78 60 0 15 2 15 25 0 13 -9 39 -16 57 -16 18 0 50 -9 71 -20 34 -18 56 -20
271 -20 186 0 236 3 245 14 6 7 18 56 26 107 13 87 23 168 60 509 8 69 19 166
25 215 44 373 79 670 85 735 3 30 14 123 25 205 11 83 22 176 25 208 16 144
24 12 25 -403z m1317 403 c-3 -10 -5 -4 -5 12 0 17 2 24 5 18 2 -7 2 -21 0
-30z m1620 -15 c-2 -13 -4 -5 -4 17 -1 22 1 32 4 23 2 -10 2 -28 0 -40z
m-3568 -106 c0 -35 -3 -42 -9 -27 -12 28 -12 88 0 80 6 -3 10 -27 9 -53z
m2513 6 c-10 -22 -11 -21 -11 12 -1 26 2 31 11 22 8 -8 8 -17 0 -34z m-1995
-25 c-3 -10 -5 -2 -5 17 0 19 2 27 5 18 2 -10 2 -26 0 -35z m1403 -70 c-9 -15
-10 -12 -6 16 3 18 7 43 8 55 1 11 3 4 5 -16 2 -21 -1 -46 -7 -55z m3180 49
c0 -7 -4 -10 -10 -7 -5 3 -10 16 -10 28 0 18 2 19 10 7 5 -8 10 -21 10 -28z
m-4593 -34 c-3 -7 -5 -2 -5 12 0 14 2 19 5 13 2 -7 2 -19 0 -25z m3080 -15
c-3 -10 -5 -4 -5 12 0 17 2 24 5 18 2 -7 2 -21 0 -30z m1520 -20 c-3 -10 -5
-4 -5 12 0 17 2 24 5 18 2 -7 2 -21 0 -30z m-5082 -23 c5 -25 4 -32 -4 -25 -6
6 -14 26 -17 45 -5 24 -3 32 4 25 5 -5 13 -26 17 -45z m480 -32 c-8 -36 -12
-44 -20 -36 -8 8 7 68 17 68 6 0 7 -14 3 -32z m1415 8 c0 -8 -4 -18 -10 -21
-5 -3 -10 3 -10 14 0 12 5 21 10 21 6 0 10 -6 10 -14z m1687 -58 c-2 -13 -4
-5 -4 17 -1 22 1 32 4 23 2 -10 2 -28 0 -40z m-1120 10 c-3 -8 -6 -5 -6 6 -1
11 2 17 5 13 3 -3 4 -12 1 -19z m2652 -38 c0 -23 -1 -23 -9 -5 -5 11 -9 29 -9
40 -1 17 1 17 9 5 5 -8 9 -26 9 -40z m8 -72 c-3 -8 -6 -5 -6 6 -1 11 2 17 5
13 3 -3 4 -12 1 -19z m-3260 -50 c-2 -13 -4 -3 -4 22 0 25 2 35 4 23 2 -13 2
-33 0 -45z m-1412 -45 c-10 -43 -17 -18 -8 34 6 39 8 43 11 19 2 -15 1 -40 -3
-53z m3152 10 c-3 -10 -5 -4 -5 12 0 17 2 24 5 18 2 -7 2 -21 0 -30z m1547 -6
c4 -19 3 -26 -4 -22 -5 3 -10 18 -10 32 0 32 5 28 14 -10z m-3303 -64 c-9 -16
-10 -16 -11 -1 0 9 3 25 7 35 7 16 8 17 11 1 2 -10 -1 -25 -7 -35z m-1412 -55
c-18 -33 -23 -6 -7 39 12 36 13 37 16 11 2 -15 -2 -37 -9 -50z m3188 -10 c-2
-13 -4 -5 -4 17 -1 22 1 32 4 23 2 -10 2 -28 0 -40z m1567 -50 c4 -17 2 -28
-4 -28 -5 0 -10 14 -10 32 0 36 4 35 14 -4z m-3369 -145 c-10 -43 -17 -18 -8
34 6 39 8 43 11 19 2 -15 1 -40 -3 -53z m1822 10 c-3 -10 -5 -2 -5 17 0 19 2
27 5 18 2 -10 2 -26 0 -35z m-3236 -68 c-5 -42 -12 -79 -15 -82 -13 -14 -16 7
-6 53 5 27 12 67 16 89 11 69 15 21 5 -60z m4819 16 c0 -45 -6 -37 -14 19 -4
31 -3 40 4 30 5 -8 10 -30 10 -49z m-1563 -108 c-2 -16 -4 -5 -4 22 0 28 2 40
4 28 2 -13 2 -35 0 -50z m-546 -42 c12 -14 19 -39 19 -65 0 -22 7 -81 16 -131
9 -49 19 -139 24 -200 5 -60 16 -146 24 -190 9 -44 16 -107 16 -141 0 -100
-15 -95 293 -92 205 2 268 0 272 -9 11 -29 -37 -34 -310 -31 -208 2 -277 6
-287 16 -8 8 -16 53 -20 110 -4 53 -12 122 -18 152 -5 30 -14 107 -20 170 -5
63 -16 151 -24 195 -9 44 -16 103 -16 130 0 28 -5 56 -12 63 -9 9 -97 12 -337
12 -288 0 -326 -2 -343 -17 -10 -9 -18 -26 -18 -37 0 -12 -5 -28 -11 -36 -8
-11 -9 -1 -4 35 7 54 25 81 59 88 11 3 169 4 349 3 l329 -1 19 -24z m2148 -36
c-1 -29 -1 -29 -9 -5 -4 14 -8 34 -9 45 -1 16 1 17 9 5 5 -8 9 -28 9 -45z
m-3477 -41 c-6 -35 -12 -29 -12 14 0 23 3 32 9 24 4 -7 6 -24 3 -38z m1901 13
c3 -8 1 -20 -4 -28 -6 -10 -9 -7 -9 14 0 29 5 35 13 14z m-662 -81 c3 -30 11
-52 22 -58 10 -5 17 -21 17 -39 0 -26 -2 -29 -19 -19 -30 16 -406 13 -419 -3
-11 -12 -31 -148 -57 -387 -36 -318 -46 -395 -58 -419 l-12 -26 -320 -3 c-176
-1 -330 0 -342 3 -20 5 -23 12 -23 57 0 67 -18 88 -77 88 -38 0 -45 4 -53 26
-13 34 -13 41 2 26 7 -7 37 -12 69 -12 41 0 63 -5 82 -20 23 -19 40 -20 247
-20 122 0 229 4 239 9 13 7 21 32 29 93 13 92 36 292 52 438 5 52 14 119 20
149 5 29 10 73 10 97 0 80 -22 75 299 72 l286 -3 6 -49z m-2660 -46 c-9 -23
-10 -21 -10 16 -1 22 2 44 7 48 11 12 14 -37 3 -64z m4938 -39 c-1 -32 -2 -33
-8 -11 -4 14 -11 45 -14 70 l-7 45 15 -34 c8 -18 15 -50 14 -70z m-1602 -58
c-2 -16 -4 -5 -4 22 0 28 2 40 4 28 2 -13 2 -35 0 -50z m-3342 25 c-8 -37 -12
-44 -21 -35 -9 9 6 67 18 67 6 0 7 -13 3 -32z m1994 -25 c0 -5 -4 -17 -9 -28
-8 -18 -9 -17 -9 8 -1 15 4 27 9 27 6 0 10 -3 9 -7z m-2731 -153 l-1 -55 -8
50 c-4 28 -10 75 -13 105 l-6 55 15 -50 c8 -27 14 -75 13 -105z m2123 69 c-10
-23 -10 -23 -10 7 -1 17 2 34 7 38 11 12 14 -18 3 -45z m3594 -30 l5 -54 -15
55 c-17 67 -18 77 -5 64 6 -6 13 -35 15 -65z m-1618 -6 c-3 -10 -5 -2 -5 17 0
19 2 27 5 18 2 -10 2 -26 0 -35z m-1387 -13 c0 -10 -4 -22 -10 -25 -6 -4 -10
7 -10 25 0 18 4 29 10 25 6 -3 10 -15 10 -25z m-2009 -103 c-8 -8 -11 -2 -11
19 0 40 14 54 18 19 2 -15 -1 -32 -7 -38z m2766 31 c-3 -8 -6 -5 -6 6 -1 11 2
17 5 13 3 -3 4 -12 1 -19z m2287 -83 c5 -21 4 -27 -3 -20 -6 6 -13 26 -16 45
-7 42 8 21 19 -25z m-5058 -17 c-4 -24 -12 -47 -18 -53 -7 -7 -9 2 -4 30 3 22
6 46 6 53 0 6 5 12 11 12 8 0 9 -14 5 -42z m3421 -20 c-2 -13 -4 -3 -4 22 0
25 2 35 4 23 2 -13 2 -33 0 -45z m-4089 -68 l0 -35 -8 30 c-4 17 -8 46 -8 65
l0 35 8 -30 c4 -16 8 -46 8 -65z m2053 13 c-10 -17 -10 -17 -11 2 0 11 4 31 8
45 l7 25 3 -27 c2 -15 -1 -35 -7 -45z m600 26 l-10 -24 0 26 c-1 14 2 29 6 33
12 12 14 -9 4 -35z m1456 -76 c-3 -10 -5 -2 -5 17 0 19 2 27 5 18 2 -10 2 -26
0 -35z m1651 -43 c1 -23 0 -23 -8 -5 -5 11 -8 34 -8 50 0 29 0 29 8 5 4 -14 8
-36 8 -50z m-5751 -22 c-2 -13 -4 -3 -4 22 0 25 2 35 4 23 2 -13 2 -33 0 -45z"/>
<path d="M12275 7420 c-16 -5 -69 -12 -118 -16 -59 -4 -92 -11 -103 -21 -8 -9
-35 -19 -58 -24 -40 -7 -64 -20 -155 -81 -68 -47 -179 -169 -215 -238 -16 -30
-35 -62 -42 -71 -8 -8 -14 -23 -14 -32 0 -9 -4 -19 -10 -22 -5 -3 -14 -25 -20
-48 -6 -23 -16 -55 -24 -72 -20 -47 -46 -153 -56 -230 -5 -38 -14 -110 -20
-160 -21 -164 -23 -324 -6 -411 8 -43 18 -115 22 -159 4 -44 12 -91 19 -105 7
-14 16 -48 20 -75 4 -28 14 -59 21 -70 8 -11 14 -28 14 -38 0 -54 143 -334
246 -482 47 -68 206 -273 255 -328 13 -15 33 -39 44 -53 11 -14 27 -33 36 -42
9 -10 36 -42 61 -72 24 -30 56 -67 69 -82 44 -47 197 -281 224 -341 44 -100
68 -180 76 -247 4 -36 12 -98 18 -138 10 -70 6 -126 -18 -262 -11 -63 -39
-113 -85 -149 -37 -29 -44 -31 -125 -31 l-86 1 -47 47 c-25 26 -58 74 -72 106
-24 55 -27 73 -32 255 -5 134 -11 205 -20 223 -8 15 -14 47 -14 72 0 35 -5 48
-19 56 -30 16 -607 14 -618 -2 -4 -7 -7 -148 -6 -313 2 -235 5 -309 17 -342 8
-23 18 -75 22 -115 3 -40 13 -85 20 -99 7 -15 18 -44 23 -65 16 -62 43 -138
56 -154 6 -8 17 -26 24 -40 35 -72 52 -96 111 -166 83 -97 208 -203 289 -244
63 -32 160 -59 236 -67 22 -2 56 -6 75 -9 75 -11 336 34 391 68 13 9 36 18 50
22 14 3 36 15 49 26 13 11 27 20 32 20 29 0 142 107 217 206 56 74 151 261
151 298 0 9 6 29 14 44 7 15 17 47 20 72 4 25 14 72 21 105 17 70 38 315 38
430 0 125 -22 355 -38 404 -8 25 -15 54 -15 65 0 20 -43 171 -60 211 -5 11
-21 49 -36 85 -67 165 -242 426 -410 613 -139 155 -354 427 -354 449 0 5 -8
21 -18 36 -74 107 -132 216 -132 245 0 10 -7 32 -16 48 -22 44 -54 246 -54
342 0 92 28 212 59 255 46 64 66 75 148 80 l78 4 53 -42 c28 -23 52 -47 52
-53 0 -6 10 -21 23 -35 21 -23 22 -32 27 -250 l5 -227 67 -5 c51 -4 72 -10 90
-27 24 -22 29 -23 256 -23 l232 0 16 26 c15 22 16 53 11 297 -4 194 -10 286
-20 322 -9 28 -18 73 -22 100 -6 53 -39 163 -61 207 -8 14 -14 31 -14 37 0 7
-21 44 -47 84 -70 106 -278 307 -318 307 -7 0 -20 9 -30 20 -10 11 -34 22 -54
26 -20 4 -49 14 -66 24 -20 12 -70 22 -145 29 -63 7 -128 14 -145 16 -16 2
-43 0 -60 -5z m198 -51 c40 -7 76 -16 82 -20 5 -5 19 -9 31 -9 13 0 26 -4 29
-10 3 -5 18 -10 33 -10 15 0 38 -9 52 -20 14 -11 30 -20 36 -20 5 0 19 -8 30
-17 10 -10 31 -24 45 -31 47 -25 189 -173 189 -198 0 -7 3 -14 8 -16 13 -6 92
-166 92 -187 0 -11 8 -35 19 -54 10 -18 21 -51 24 -73 3 -21 11 -59 17 -84 16
-59 28 -196 36 -401 6 -166 6 -166 -17 -183 -20 -14 -58 -16 -270 -16 l-247 0
-15 24 c-12 18 -17 61 -20 182 -6 213 -26 301 -89 376 -46 53 -95 72 -188 73
-73 0 -90 -3 -117 -22 -17 -13 -34 -23 -37 -23 -9 0 -56 -51 -56 -61 0 -6 -8
-23 -19 -37 -10 -15 -21 -45 -24 -67 -3 -22 -11 -71 -18 -110 -15 -89 -15
-140 0 -240 7 -44 14 -100 17 -125 5 -42 13 -69 35 -112 5 -10 9 -24 9 -32 0
-18 103 -222 124 -245 9 -10 16 -23 16 -29 0 -7 4 -12 8 -12 5 0 15 -12 23
-27 8 -15 29 -43 47 -62 17 -20 32 -38 32 -42 0 -4 6 -14 13 -21 6 -7 32 -38
56 -68 24 -30 51 -62 60 -70 9 -8 36 -40 61 -70 25 -30 60 -70 78 -90 19 -19
46 -51 60 -70 15 -19 37 -46 50 -60 12 -14 22 -28 22 -32 0 -3 6 -13 13 -20
22 -22 117 -166 117 -178 0 -5 4 -10 8 -10 5 0 15 -12 22 -27 8 -16 22 -40 32
-55 10 -14 18 -33 18 -41 0 -9 3 -17 8 -19 4 -1 18 -25 31 -53 13 -27 32 -67
42 -88 11 -22 19 -47 19 -58 0 -10 9 -34 20 -54 11 -20 20 -53 20 -75 0 -21 5
-42 10 -45 6 -3 10 -16 10 -29 0 -12 4 -26 9 -32 5 -5 12 -43 15 -84 3 -41 10
-133 16 -205 14 -184 -20 -611 -51 -631 -5 -3 -9 -18 -9 -35 0 -16 -4 -38 -10
-49 -5 -11 -14 -29 -20 -40 -5 -11 -10 -31 -10 -44 0 -13 -3 -26 -7 -28 -5 -1
-27 -40 -51 -86 -23 -45 -55 -97 -70 -114 -74 -87 -126 -138 -156 -152 -18 -9
-39 -22 -46 -31 -7 -8 -20 -15 -29 -15 -9 0 -27 -9 -41 -20 -14 -11 -31 -20
-39 -20 -14 0 -63 -14 -106 -30 -104 -39 -352 -39 -450 0 -11 4 -40 13 -65 20
-50 14 -126 51 -188 92 -49 33 -182 168 -182 185 0 7 -4 13 -8 13 -5 0 -15 12
-22 28 -8 15 -22 39 -32 54 -10 14 -18 32 -18 40 0 7 -9 24 -20 38 -11 14 -20
35 -20 48 0 12 -9 41 -19 65 -11 23 -22 58 -26 77 -3 19 -10 58 -16 85 -24
122 -33 246 -34 465 l0 234 25 13 c32 16 491 18 521 3 18 -10 19 -24 19 -237
0 -213 5 -263 31 -315 5 -10 9 -30 9 -45 0 -16 9 -39 20 -53 11 -14 20 -28 20
-32 0 -16 50 -56 96 -77 98 -46 251 -22 309 48 34 41 65 100 65 124 0 13 4 27
8 32 18 21 34 227 23 295 -6 36 -11 84 -11 107 0 23 -4 45 -10 48 -5 3 -10 19
-10 35 0 15 -9 49 -20 75 -11 26 -20 54 -20 63 0 9 -9 28 -20 42 -11 14 -20
32 -20 41 0 9 -9 24 -20 34 -11 10 -20 25 -20 33 0 8 -13 31 -30 52 -16 21
-30 41 -30 44 0 10 -121 167 -215 277 -49 59 -97 115 -105 125 -8 11 -51 62
-96 114 -44 52 -83 102 -87 110 -4 8 -31 46 -61 83 -29 38 -59 80 -67 95 -7
15 -22 40 -33 56 -32 48 -136 257 -136 275 0 9 -9 31 -20 49 -11 18 -20 46
-20 62 0 16 -4 31 -9 34 -10 6 -18 35 -31 111 -5 28 -15 82 -22 120 -18 97
-17 558 0 645 8 36 16 88 18 115 5 46 13 73 35 117 5 10 9 27 9 38 0 10 9 35
20 55 11 20 20 44 20 53 0 10 4 22 9 28 8 8 36 55 66 111 30 57 148 181 194
205 14 7 35 21 45 31 11 9 25 17 30 17 6 0 22 9 36 20 14 11 37 20 52 20 15 0
30 5 33 10 3 6 16 10 29 10 12 0 26 3 30 8 26 25 246 38 359 21z"/>
<path d="M12230 7335 c-197 -33 -329 -101 -445 -228 -63 -69 -134 -181 -163
-257 -74 -195 -103 -359 -109 -603 -11 -412 61 -689 265 -1027 68 -113 191
-274 366 -480 303 -355 404 -516 468 -746 19 -69 22 -105 22 -279 1 -166 -2
-211 -18 -266 -24 -87 -76 -155 -146 -194 -50 -27 -63 -30 -150 -30 -83 1
-101 4 -145 27 -83 43 -117 93 -151 217 -22 78 -24 106 -24 303 0 213 0 217
-22 232 -19 13 -58 16 -228 16 -145 0 -212 -4 -230 -13 -25 -13 -25 -13 -28
-172 -8 -393 64 -710 211 -930 81 -121 235 -231 387 -278 291 -88 608 -15 802
187 187 193 289 523 289 934 0 292 -49 523 -164 767 -96 203 -213 373 -436
633 -411 478 -491 627 -531 986 -24 215 23 433 111 512 92 83 259 95 362 26
100 -66 138 -176 146 -429 4 -113 10 -166 19 -175 17 -17 390 -24 443 -9 54
16 58 48 38 286 -28 343 -112 585 -258 749 -123 138 -245 202 -461 241 -90 17
-122 17 -220 0z"/>
<path d="M14549 7426 c-2 -2 -65 -9 -139 -16 -93 -8 -144 -18 -165 -30 -16 -9
-45 -20 -64 -24 -19 -3 -43 -14 -53 -23 -19 -17 -29 -24 -88 -58 -43 -25 -151
-135 -191 -193 -16 -24 -29 -45 -29 -46 0 -2 -18 -34 -40 -70 -22 -36 -40 -74
-40 -83 0 -10 -9 -36 -19 -58 -10 -22 -21 -58 -25 -80 -4 -22 -12 -45 -16 -50
-5 -6 -13 -47 -19 -91 -5 -44 -15 -93 -21 -109 -9 -22 -12 -429 -12 -1522 0
-1314 2 -1501 16 -1560 8 -38 20 -93 25 -123 12 -70 37 -156 56 -197 8 -17 15
-38 15 -46 0 -46 173 -300 245 -359 120 -99 171 -138 180 -138 5 0 33 -12 60
-25 28 -14 60 -25 73 -25 12 0 37 -6 55 -14 44 -18 198 -27 277 -17 185 25
275 58 411 148 77 51 71 46 139 122 49 56 108 140 126 181 4 8 13 22 19 30 7
8 25 51 40 95 15 44 33 92 41 107 8 15 14 41 14 57 0 17 7 52 16 77 9 26 20
100 25 163 5 64 13 159 18 211 5 52 9 210 10 350 0 209 -2 258 -14 274 -9 12
-15 42 -15 72 0 38 -4 53 -16 58 -9 3 -150 6 -314 6 -228 0 -301 -3 -307 -12
-4 -7 -9 -176 -10 -375 -1 -205 -6 -386 -12 -419 -6 -32 -11 -71 -11 -88 0
-45 -49 -139 -92 -176 -38 -32 -39 -32 -129 -28 -84 3 -93 5 -108 27 -9 14
-31 38 -48 55 -18 16 -33 34 -33 40 0 7 -10 30 -22 51 l-23 40 0 1430 0 1430
23 40 c12 21 22 44 22 50 0 11 23 37 73 80 24 22 38 25 101 25 68 0 76 -3 117
-34 24 -18 59 -52 77 -75 49 -61 62 -158 65 -500 2 -315 1 -311 75 -311 26 0
57 -8 76 -19 28 -17 51 -19 262 -17 179 1 235 4 247 15 15 12 17 43 16 270 0
141 -5 297 -9 346 -5 50 -14 145 -19 212 -5 67 -17 142 -25 168 -9 25 -16 58
-16 73 0 15 -9 46 -19 68 -10 23 -22 55 -26 73 -3 17 -11 33 -16 36 -5 4 -9
14 -9 24 0 47 -242 328 -299 346 -11 3 -21 10 -21 15 0 5 -9 12 -20 15 -11 4
-33 17 -49 30 -15 13 -50 29 -77 35 -27 6 -56 17 -64 25 -10 9 -56 18 -125 23
-61 5 -117 12 -126 16 -8 4 -17 5 -20 2z m124 -57 c40 -6 80 -15 89 -20 10 -5
27 -9 37 -9 11 0 23 -4 26 -10 3 -5 18 -10 33 -10 15 0 38 -9 52 -20 14 -11
31 -20 38 -20 29 0 234 -183 253 -225 5 -11 22 -42 39 -70 16 -27 37 -66 46
-85 9 -19 20 -43 25 -52 5 -10 9 -27 9 -37 0 -11 5 -23 10 -26 6 -3 10 -17 10
-30 0 -13 4 -26 9 -29 10 -7 19 -45 31 -136 5 -36 15 -103 24 -150 12 -65 16
-157 16 -392 0 -294 -1 -308 -19 -318 -25 -13 -490 -14 -525 0 l-26 10 0 300
c0 283 -6 363 -31 412 -5 10 -9 28 -9 40 0 13 -9 34 -20 48 -11 14 -20 29 -20
33 0 13 -42 51 -85 76 -33 20 -54 25 -121 25 -67 1 -88 -3 -129 -24 -47 -24
-95 -63 -95 -78 0 -4 -9 -18 -20 -32 -11 -14 -20 -39 -20 -57 0 -17 -4 -34 -9
-37 -5 -3 -12 -25 -16 -48 -10 -57 -10 -2822 -1 -2871 5 -20 12 -40 17 -43 5
-3 9 -20 9 -37 0 -18 9 -43 20 -57 11 -14 20 -28 20 -32 0 -13 46 -53 76 -67
16 -7 38 -18 48 -23 11 -6 53 -10 94 -10 58 0 84 5 120 23 44 23 92 62 92 77
0 4 9 18 20 32 11 14 20 35 20 48 0 12 4 30 9 40 26 51 31 130 31 497 0 370 1
385 19 395 12 6 116 10 267 10 216 0 250 -2 266 -17 17 -15 18 -41 18 -402 0
-310 -4 -403 -16 -471 -9 -47 -18 -114 -21 -150 -2 -36 -9 -69 -14 -75 -5 -5
-9 -19 -9 -31 0 -13 -4 -26 -10 -29 -5 -3 -10 -19 -10 -35 0 -16 -4 -32 -10
-35 -5 -3 -10 -13 -10 -21 0 -22 -87 -199 -105 -214 -8 -7 -15 -18 -15 -24 0
-15 -143 -157 -190 -190 -44 -31 -123 -69 -175 -85 -22 -7 -49 -16 -60 -20
-96 -40 -360 -40 -460 -2 -40 16 -92 31 -106 31 -8 0 -25 9 -39 20 -14 11 -30
20 -37 20 -18 0 -112 70 -163 121 -64 65 -100 112 -138 180 -42 75 -55 104
-73 164 -6 22 -15 48 -20 57 -5 10 -9 27 -9 37 0 11 -4 22 -9 25 -9 6 -12 24
-31 161 -26 189 -30 390 -30 1565 0 1169 4 1391 30 1575 19 137 22 155 31 161
5 3 9 14 9 25 0 10 4 27 9 37 5 9 14 35 20 57 17 54 92 205 102 205 5 0 9 6 9
13 0 13 70 98 120 145 29 29 135 102 147 102 4 0 19 9 33 20 14 11 37 20 52
20 15 0 29 4 32 9 3 5 18 11 33 14 141 30 177 35 241 36 40 0 106 -4 145 -10z"/>
<path d="M14435 7335 c-90 -14 -194 -44 -246 -70 -259 -134 -420 -413 -471
-820 -19 -144 -19 -2816 0 -2960 36 -291 124 -509 268 -664 63 -68 91 -89 199
-147 113 -61 304 -97 440 -83 84 9 186 36 269 73 92 40 230 158 293 251 77
114 156 329 173 474 6 47 16 102 22 121 6 21 12 183 15 410 3 299 1 380 -9
400 l-14 25 -225 3 c-183 2 -228 0 -244 -12 -19 -14 -20 -32 -25 -433 -6 -404
-7 -420 -29 -480 -28 -76 -88 -147 -150 -176 -71 -34 -206 -31 -282 5 -82 39
-119 89 -156 213 -17 57 -18 142 -18 1500 0 1361 1 1443 18 1500 38 125 80
183 164 225 40 20 63 24 138 24 81 0 96 -3 145 -29 73 -40 119 -103 148 -202
21 -74 22 -98 22 -384 0 -248 3 -309 14 -325 14 -18 28 -19 249 -19 130 0 239
4 244 8 13 13 8 605 -5 652 -6 22 -16 79 -21 126 -13 116 -83 321 -145 425
-127 214 -295 325 -561 369 -95 17 -116 16 -220 0z"/>
<path d="M1046 7364 c-14 -13 -16 -62 -16 -383 0 -272 3 -370 12 -379 7 -7 28
-12 48 -12 20 0 53 -9 75 -20 35 -18 59 -20 216 -20 200 0 229 -6 229 -47 0
-16 7 -50 15 -77 13 -43 15 -295 15 -1951 0 -1465 3 -1904 12 -1913 7 -7 33
-12 59 -12 31 0 55 -6 72 -20 24 -19 40 -20 281 -20 242 0 256 1 266 19 7 13
10 657 10 2008 0 1534 3 1992 12 2001 9 9 88 12 294 12 215 0 285 3 291 13 13
19 15 583 3 652 -6 33 -11 71 -12 85 0 14 -5 37 -10 53 l-10 27 -923 0 c-826
0 -925 -2 -939 -16z m1808 -44 l26 -10 0 -321 c0 -286 -2 -324 -17 -341 -15
-17 -38 -18 -300 -18 l-283 0 0 -2005 c0 -1971 0 -2004 -19 -2015 -25 -13
-530 -14 -565 0 l-26 10 0 2005 0 2005 -283 0 c-214 0 -287 3 -301 13 -16 11
-17 40 -17 337 1 179 1 328 1 332 0 4 12 9 28 11 61 9 1732 7 1756 -3z"/>
<path d="M1117 7293 c-16 -4 -17 -25 -15 -311 l3 -307 288 -5 c241 -4 289 -7
297 -20 6 -9 10 -768 10 -2000 0 -1531 3 -1989 12 -1998 17 -17 509 -17 526 0
9 9 12 468 12 2005 l0 1993 25 10 c14 5 143 10 286 10 180 0 266 3 275 11 11
9 14 69 14 305 l0 294 -26 10 c-25 10 -1670 13 -1707 3z"/>
<path d="M3296 7363 c-8 -21 -9 -4791 -1 -4804 4 -5 32 -9 64 -9 45 0 62 -4
76 -20 17 -19 31 -20 276 -20 195 0 260 3 266 13 4 6 10 460 13 1007 l5 995
248 3 c193 2 248 0 251 -10 2 -7 9 -33 17 -58 10 -35 14 -242 18 -961 5 -756
8 -919 20 -932 8 -11 28 -17 53 -17 21 0 56 -9 78 -20 36 -18 59 -20 288 -20
220 0 251 2 263 17 12 13 14 387 16 2335 2 2034 1 2324 -12 2355 -8 20 -18 60
-22 90 -4 37 -11 57 -24 63 -10 6 -145 10 -316 10 -243 0 -303 -3 -319 -14
-19 -14 -19 -39 -24 -994 -4 -810 -7 -982 -19 -995 -12 -15 -38 -17 -189 -17
-153 0 -178 2 -195 17 -11 11 -42 20 -76 23 l-56 5 -6 920 c-7 897 -10 1017
-31 1043 -8 9 -87 12 -333 12 -294 0 -323 -2 -329 -17z m620 -57 c12 -17 14
-170 14 -1002 l0 -981 43 -5 c77 -8 521 -10 560 -3 l37 7 0 994 0 994 27 11
c17 6 128 9 296 7 252 -3 269 -4 283 -22 12 -17 14 -354 14 -2347 0 -2151 -1
-2328 -17 -2340 -21 -18 -551 -26 -583 -9 -20 11 -20 18 -20 1005 l0 995 -320
0 -320 0 0 -985 c0 -979 0 -985 -20 -1005 -20 -20 -30 -21 -290 -18 -172 2
-273 7 -280 14 -8 8 -14 2950 -10 4682 0 26 52 31 308 29 248 -2 264 -3 278
-21z"/>
<path d="M3383 7290 l-23 -9 0 -2309 c0 -1782 3 -2311 12 -2320 9 -9 80 -12
260 -12 l248 0 9 23 c5 12 9 458 9 991 0 921 1 970 18 983 23 17 634 19 665 3
19 -10 19 -32 19 -988 0 -776 3 -982 13 -996 11 -15 37 -17 266 -17 176 0 258
4 267 12 12 10 14 366 14 2314 0 2130 -1 2304 -17 2316 -13 11 -69 14 -269 14
-139 0 -256 -4 -261 -8 -4 -5 -9 -454 -11 -998 -2 -976 -3 -989 -22 -999 -30
-16 -655 -9 -671 7 -10 10 -13 230 -13 994 -1 959 -1 981 -20 995 -16 11 -66
14 -245 13 -124 0 -236 -4 -248 -9z"/>
<path d="M5796 7364 c-8 -20 -8 -4778 0 -4798 5 -12 20 -16 59 -16 37 0 60 -6
78 -20 25 -20 40 -20 791 -20 l766 0 5 23 c8 30 -1 670 -9 722 -4 22 -9 50
-12 63 l-4 22 -414 0 c-397 0 -414 1 -431 20 -12 13 -33 20 -69 22 l-51 3 -5
583 c-3 321 -1 590 3 598 7 12 70 14 392 14 370 0 385 1 395 19 6 12 10 133
10 324 0 258 -2 310 -16 343 -9 22 -18 57 -20 78 -7 68 5 66 -323 66 -278 0
-297 2 -321 20 -17 13 -41 20 -73 20 l-47 0 2 548 3 547 489 2 c383 2 491 5
498 15 10 15 3 668 -7 743 -4 28 -12 56 -17 63 -8 9 -188 12 -838 12 -746 0
-828 -2 -834 -16z m1611 -40 l22 -6 3 -327 c3 -307 2 -327 -16 -343 -17 -17
-55 -18 -502 -18 l-484 0 2 -632 3 -633 378 -3 c304 -2 383 -5 399 -16 19 -13
20 -26 18 -337 0 -241 -4 -325 -13 -331 -7 -4 -181 -8 -387 -8 -279 0 -379 -3
-388 -12 -9 -9 -12 -175 -12 -685 l0 -673 483 0 c372 0 487 -3 500 -13 16 -11
18 -42 18 -341 0 -257 -3 -331 -13 -338 -20 -12 -1565 -5 -1577 7 -15 15 -21
4671 -7 4690 6 7 18 15 26 18 21 7 1520 8 1547 1z"/>
<path d="M5880 7280 c-20 -20 -20 -26 -20 -2304 0 -1460 4 -2294 10 -2310 l10
-26 753 0 c572 0 756 3 765 12 19 19 17 567 -2 594 -14 18 -32 19 -493 22
-433 2 -479 4 -490 19 -10 13 -13 169 -13 698 0 648 1 683 18 698 17 15 58 17
389 17 333 0 372 2 384 17 11 13 14 74 14 298 0 224 -3 285 -14 298 -12 15
-52 17 -387 17 -325 0 -375 2 -388 16 -14 14 -16 87 -16 653 0 582 1 640 17
652 13 11 106 15 492 17 430 2 477 4 489 19 15 21 17 569 2 593 -8 13 -105 15
-754 18 -736 2 -746 2 -766 -18z"/>
<path d="M7931 7366 c-17 -20 -17 -4782 0 -4802 7 -9 32 -14 64 -14 40 0 56
-5 71 -21 19 -21 22 -21 499 -17 406 4 487 7 525 20 25 9 62 19 84 23 34 6 64
17 146 54 14 7 41 22 61 34 150 92 276 242 337 402 13 33 32 79 43 103 10 23
19 52 19 63 0 11 9 54 20 97 30 119 40 278 40 636 0 305 -6 410 -30 556 -28
167 -82 305 -156 400 -24 30 -50 71 -58 91 -8 20 -29 50 -46 65 -17 16 -38 39
-46 52 -15 22 -13 25 24 67 104 112 180 285 228 515 14 68 18 154 22 426 4
317 2 348 -17 442 -12 55 -21 110 -21 122 0 52 -73 236 -123 310 -56 82 -256
269 -289 270 -4 0 -24 11 -44 25 -20 14 -46 25 -58 25 -12 0 -39 10 -61 22
-59 32 -187 39 -741 44 -409 4 -483 2 -493 -10z m1140 -52 c23 -15 82 -34 107
-34 73 0 292 -160 356 -260 39 -61 96 -175 96 -192 0 -8 9 -33 20 -56 11 -22
20 -54 20 -69 0 -16 5 -44 11 -63 13 -40 31 -332 32 -495 0 -202 -18 -457 -35
-492 -8 -17 -13 -42 -11 -56 3 -13 -4 -42 -16 -65 -12 -23 -21 -48 -21 -56 0
-62 -157 -275 -242 -329 -35 -22 -28 -39 30 -79 61 -42 144 -125 178 -180 46
-71 121 -235 112 -244 -4 -3 2 -25 13 -48 10 -23 21 -71 24 -107 2 -35 10 -84
17 -109 18 -64 17 -858 0 -915 -7 -22 -15 -65 -18 -95 -5 -53 -23 -130 -46
-195 -43 -124 -41 -120 -66 -157 -9 -14 -30 -48 -46 -75 -26 -44 -162 -193
-177 -193 -3 0 -44 -22 -90 -50 -55 -33 -95 -50 -117 -50 -18 0 -54 -10 -80
-22 -47 -23 -48 -23 -593 -23 -448 0 -549 2 -562 14 -16 12 -17 186 -17 2340
0 2429 -1 2348 40 2365 24 10 1065 0 1081 -10z"/>
<path d="M8017 7288 c-17 -13 -18 -115 -17 -2322 0 -1269 3 -2312 6 -2317 3
-5 222 -9 512 -9 543 0 518 -2 690 51 78 25 190 99 263 177 172 182 243 384
280 799 13 142 7 513 -11 643 -6 41 -13 100 -16 130 -7 64 -36 168 -71 259
-53 137 -152 268 -257 340 -81 56 -75 90 36 201 119 120 177 239 227 465 38
175 36 708 -4 910 -37 191 -112 351 -214 458 -81 86 -228 177 -284 177 -13 0
-50 10 -83 21 -56 21 -81 22 -549 26 -402 4 -493 2 -508 -9z m961 -649 c141
-85 175 -199 176 -604 2 -403 -40 -534 -198 -624 -68 -39 -344 -54 -404 -22
l-22 12 0 618 c0 483 3 621 13 629 23 19 53 21 225 17 156 -4 178 -7 210 -26z
m25 -1924 c91 -42 144 -112 180 -240 17 -62 20 -113 24 -435 5 -391 -2 -500
-37 -593 -26 -69 -60 -111 -119 -149 l-45 -28 -226 0 c-162 0 -229 3 -238 12
-17 17 -17 1429 0 1446 9 9 69 12 209 12 189 0 199 -1 252 -25z"/>
<path d="M8557 6616 c-7 -19 -8 -1102 -1 -1152 8 -53 30 -64 133 -64 97 0 183
15 239 43 45 22 122 100 122 123 0 7 8 28 19 46 28 51 34 128 34 423 1 291 -3
341 -36 425 -22 59 -71 130 -90 130 -7 0 -23 9 -37 20 -23 18 -42 20 -201 20
-141 0 -178 -3 -182 -14z m296 -76 c65 -10 71 -13 124 -67 93 -95 93 -97 93
-446 0 -284 -1 -304 -22 -370 -18 -55 -34 -81 -75 -123 -45 -47 -57 -54 -91
-54 -21 0 -53 -5 -71 -11 -26 -9 -36 -8 -59 7 -15 11 -49 21 -77 24 l-50 5 -3
509 c-1 367 1 513 9 522 14 17 121 18 222 4z"/>
<path d="M8802 6378 c-9 -9 -12 -116 -12 -419 0 -224 3 -414 6 -423 8 -20 65
-21 102 -2 35 18 86 72 104 111 37 76 43 126 43 375 0 263 -9 328 -49 355 -26
19 -176 21 -194 3z"/>
<path d="M8556 4693 c-6 -23 -6 -1306 1 -1355 l5 -38 207 0 207 0 46 29 c50
32 101 98 112 146 36 159 37 174 33 524 -3 191 -10 368 -15 396 -6 28 -14 66
-18 85 -13 66 -97 190 -129 190 -6 0 -30 9 -53 20 -36 18 -61 20 -216 20 -158
0 -175 -2 -180 -17z m434 -110 c86 -62 108 -99 131 -225 19 -104 20 -140 16
-438 -3 -224 -9 -336 -17 -360 -7 -19 -19 -54 -27 -78 -24 -69 -61 -102 -134
-119 -112 -27 -175 -28 -205 -4 -17 14 -41 21 -68 21 -23 0 -47 5 -54 12 -9 9
-12 159 -12 613 0 331 3 605 7 609 4 4 77 6 163 4 l155 -3 45 -32z"/>
<path d="M8801 4451 c-8 -13 -11 -182 -11 -525 0 -445 2 -506 16 -520 19 -20
51 -20 129 -2 77 19 115 58 145 153 19 61 22 98 27 362 5 254 3 308 -12 398
-25 146 -26 147 -168 151 -107 3 -116 2 -126 -17z"/>
<path d="M10282 7368 c-17 -17 -17 -4789 0 -4806 7 -7 33 -12 59 -12 31 0 55
-6 72 -20 24 -19 38 -20 288 -18 l263 3 7 25 c4 14 7 1065 8 2335 1 2007 -1
2317 -14 2365 -8 30 -15 69 -15 86 0 16 -5 35 -12 42 -9 9 -96 12 -328 12
-232 0 -319 -3 -328 -12z m601 -46 c16 -7 17 -124 17 -2357 0 -1876 -2 -2350
-12 -2357 -19 -11 -522 -10 -552 2 l-26 10 0 2345 0 2346 23 9 c26 10 523 12
550 2z"/>
<path d="M10373 7290 l-23 -9 0 -2308 c0 -1269 4 -2314 8 -2321 7 -9 66 -12
263 -10 l254 3 3 2315 c2 2168 1 2316 -15 2328 -20 14 -454 16 -490 2z"/>
<path d="M15947 7367 c-17 -12 -18 -112 -15 -1982 4 -1817 5 -1974 21 -2027 9
-32 21 -81 26 -110 14 -75 73 -246 96 -278 6 -8 17 -26 23 -40 7 -14 19 -36
27 -50 15 -27 140 -175 165 -196 161 -135 217 -166 355 -196 77 -17 129 -22
228 -20 72 0 134 6 141 11 7 6 44 17 82 25 71 14 166 51 194 74 36 31 93 72
101 72 12 0 69 58 123 126 25 33 51 64 56 71 6 7 10 15 10 18 0 4 17 37 38 73
21 37 48 101 61 142 13 41 30 87 37 101 7 14 18 62 23 108 6 45 13 86 16 92 4
5 10 48 15 97 14 123 13 3733 0 3767 -5 14 -10 42 -10 61 0 20 -5 44 -10 55
-10 18 -24 19 -319 19 -284 0 -310 -1 -317 -17 -5 -10 -11 -880 -14 -1933 l-5
-1915 -26 -61 c-15 -35 -43 -77 -65 -97 -38 -36 -41 -36 -121 -37 -82 0 -84 1
-124 37 -82 74 -103 122 -126 293 -4 30 -8 840 -8 1800 -2 1735 -3 1790 -34
1900 l-6 25 -311 3 c-240 2 -314 -1 -327 -11z m605 -55 c11 -11 14 -374 18
-1915 l5 -1902 23 -44 c12 -25 22 -49 22 -54 0 -23 73 -96 117 -117 95 -44
240 -23 309 47 35 35 82 141 90 203 3 30 8 893 10 1918 l4 1863 27 10 c17 6
121 9 276 7 207 -2 249 -5 257 -18 14 -21 5 -3724 -8 -3845 -6 -49 -15 -112
-21 -140 -6 -27 -14 -67 -17 -88 -4 -21 -11 -40 -15 -43 -5 -3 -9 -16 -9 -29
0 -13 -4 -27 -10 -30 -5 -3 -10 -15 -10 -26 0 -10 -4 -28 -10 -39 -23 -46 -33
-64 -50 -94 -9 -17 -28 -50 -41 -74 -27 -47 -186 -212 -205 -212 -6 0 -17 -6
-23 -14 -15 -18 -103 -59 -161 -76 -25 -7 -54 -16 -65 -20 -96 -39 -354 -39
-450 0 -11 4 -40 13 -65 20 -60 16 -143 57 -160 79 -3 3 -20 14 -38 24 -33 19
-122 100 -122 111 0 3 -12 19 -28 35 -15 16 -38 49 -51 72 -67 124 -81 153
-81 169 0 11 -4 22 -10 25 -5 3 -10 17 -10 30 0 13 -4 27 -10 30 -5 3 -10 16
-10 29 0 12 -4 26 -9 31 -5 6 -11 33 -14 60 -3 28 -11 73 -18 100 -19 73 -25
3915 -7 3927 7 5 135 7 285 6 207 -2 275 -6 285 -16z"/>
<path d="M16011 7286 c-9 -10 -11 -493 -8 -1897 2 -1729 4 -1889 19 -1944 10
-33 17 -76 18 -95 0 -48 64 -237 110 -330 126 -251 312 -382 605 -425 134 -20
290 4 435 67 224 98 393 338 462 658 46 215 48 327 46 2200 -2 967 -7 1762
-11 1767 -12 12 -459 15 -477 4 -13 -9 -16 -232 -20 -1873 -4 -1512 -8 -1874
-19 -1923 -29 -130 -82 -208 -168 -247 -69 -31 -210 -32 -273 -1 -64 30 -115
86 -144 157 -43 109 -46 242 -46 2128 l0 1748 -26 10 c-14 6 -130 10 -258 10
-186 0 -236 -3 -245 -14z"/>
<path d="M18272 7368 c-18 -18 -17 -4777 1 -4800 7 -10 33 -18 69 -20 35 -3
65 -11 76 -21 16 -15 49 -17 274 -17 204 0 258 3 267 14 14 17 9 4691 -5 4776
-5 30 -13 61 -17 68 -11 17 -647 18 -665 0z m609 -48 c15 -9 19 -21 18 -63 -1
-49 -1 -50 -9 -17 -14 59 -20 60 -273 60 -138 0 -236 -4 -248 -10 -19 -11 -19
-47 -19 -2325 0 -1500 3 -2316 10 -2320 18 -11 503 -6 514 5 8 8 12 576 13
1933 2 1057 4 2080 6 2272 1 193 3 -681 5 -1942 2 -2291 2 -2292 -18 -2303
-24 -13 -554 -10 -567 3 -9 9 -17 4638 -8 4675 3 13 16 27 28 32 32 13 524 12
548 0z"/>
<path d="M19347 7362 c-15 -17 -17 -57 -17 -376 0 -227 4 -364 10 -377 8 -13
22 -19 48 -19 20 0 57 -9 81 -20 38 -17 65 -20 216 -20 192 0 225 -6 225 -44
0 -14 5 -37 10 -52 7 -18 10 -652 10 -1943 0 -1678 2 -1919 15 -1937 11 -16
28 -23 70 -26 31 -3 62 -12 73 -21 16 -15 49 -17 274 -17 226 0 257 2 269 17
12 13 14 337 16 2007 2 1095 5 1996 7 2003 4 9 75 12 292 12 228 -1 289 2 296
13 9 14 4 657 -7 728 -3 25 -11 55 -17 68 l-11 22 -922 0 c-880 0 -923 -1
-938 -18z m1813 -45 l25 -13 3 -320 c2 -290 1 -323 -14 -335 -13 -11 -81 -15
-308 -19 l-291 -5 -2 -2004 c-2 -1601 -5 -2006 -15 -2013 -22 -14 -530 -9
-558 5 l-25 13 -5 1999 -5 2000 -278 3 c-235 2 -282 5 -303 18 l-24 16 0 317
c0 174 4 321 8 327 4 7 18 14 32 17 14 2 410 5 880 5 671 1 860 -1 880 -11z"/>
<path d="M19433 7290 c-12 -5 -25 -19 -28 -32 -9 -35 -1 -565 8 -575 5 -4 136
-10 292 -13 214 -4 287 -8 297 -18 11 -11 14 -392 18 -2010 l5 -1997 35 -5
c19 -3 139 -3 265 0 l230 5 5 2005 5 2004 25 7 c14 4 145 7 292 8 264 1 267 1
282 23 23 33 23 553 0 583 -15 20 -28 20 -862 22 -485 1 -856 -2 -869 -7z"/>
</g>
</svg>
