<?xml version="1.0" encoding="UTF-8"?>
<!-- Created with Grafika (https://www.grafika.cc/) -->
<svg version="1.0" xmlns="http://www.w3.org/2000/svg" xmlns:svg="http://www.w3.org/2000/svg" width="156" height="30" viewBox="293.984375 1077.111206 565.178711 108.553833" preserveAspectRatio="xMinYMin meet">
	<path d="M724.88671875,1081.8359375 C724.448689778646,1081.8359375 723.1581217447916,1082.253662109375 721.01171875,1083.0859375 C718.8872884114581,1083.918212890625 716.574910481771,1084.8815104166667 714.078125,1085.9765625 C711.5813395182294,1087.0716959635417 709.3048502604165,1088.2099609375 707.24609375,1089.392578125 C705.2092285156251,1090.5752766927083 704.1029459635419,1091.5179036458333 703.927734375,1092.21875 C702.8764648437501,1096.59912109375 701.8473307291669,1101.56982421875 700.83984375,1107.1328125 C699.8323567708331,1112.69580078125 698.8897298177085,1118.4115397135417 698.013671875,1124.28125 C697.1595052083331,1130.15087890625 696.3711751302085,1135.9119466145833 695.6484375,1141.5625 C694.9256998697916,1147.213134765625 694.3010253906251,1152.2948404947917 693.775390625,1156.806640625 C693.249715169271,1161.318359375 692.8452555338541,1165.0191243489583 692.560546875,1167.91015625 C692.2977294921875,1170.8011067708333 692.166015625,1172.4210611979167 692.166015625,1172.771484375 C692.1222330729166,1173.297119140625 692.2878417968751,1174.130615234375 692.66015625,1175.26953125 C693.0543619791665,1176.408447265625 693.5679524739584,1177.5693359375 694.203125,1178.751953125 C694.8382568359375,1179.9346516927083 695.5494384765625,1180.941162109375 696.337890625,1181.7734375 C697.1482747395835,1182.605712890625 697.9930826822916,1183.021484375 698.869140625,1183.021484375 C699.3728841145834,1182.408203125 700.0953369140624,1180.0 701.037109375,1175.794921875 C701.475138346354,1173.9551595052083 701.9680989583334,1171.6541341145833 702.515625,1168.89453125 C703.0631510416669,1166.1349283854167 703.719767252604,1162.7408040364583 704.486328125,1158.7109375 C705.2529296874999,1154.6809895833333 706.1183675130206,1149.9510904947917 707.08203125,1144.51953125 C708.0675862630206,1139.087890625 709.1739095052085,1132.7793782552083 710.400390625,1125.595703125 C710.838419596354,1131.990966796875 711.2428792317709,1137.3136393229167 711.615234375,1141.5625 C711.987548828125,1145.8114420572917 712.282958984375,1149.250732421875 712.501953125,1151.87890625 C712.720987955729,1154.9451497395833 712.9185384114584,1157.3965657552083 713.09375,1159.236328125 C713.2032470703126,1161.2513020833333 713.5099283854169,1163.0913899739583 714.013671875,1164.755859375 C714.5393473307291,1166.42041015625 715.1187744140626,1167.8446451822917 715.75390625,1169.02734375 C716.3890380859374,1170.2100423177083 717.0024007161456,1171.1075032552083 717.59375,1171.720703125 C718.1850992838541,1172.333984375 718.6667480468751,1172.597412109375 719.0390625,1172.509765625 C719.5428059895834,1171.8965657552083 720.7921142578124,1169.8363444010417 722.78515625,1166.33203125 C723.6831461588544,1164.8427734375 724.7555338541665,1162.9388020833333 726.00390625,1160.6171875 C727.2742106119791,1158.295654296875 728.8302001953126,1155.4471028645833 730.669921875,1152.07421875 C732.5096435546875,1148.701416015625 734.6563720703125,1144.7372233072917 737.109375,1140.181640625 C739.5842692057291,1135.6261393229167 742.4195556640626,1130.371337890625 745.6171875,1124.4140625 C743.4708251953125,1131.7730305989583 741.5875244140625,1138.2545572916667 739.966796875,1143.861328125 C738.3460693359375,1149.4681803385417 736.9556884765625,1154.375 735.794921875,1158.580078125 C734.6341145833335,1162.7852376302083 733.6708170572916,1166.354248046875 732.904296875,1169.2890625 C732.1377360026041,1172.223876953125 731.5244140625001,1174.6547037760417 731.064453125,1176.58203125 C729.947509765625,1181.1376139322917 729.3660888671875,1183.8544108072917 729.322265625,1184.73046875 C729.4974772135419,1185.16845703125 730.044962565104,1185.0799967447917 730.96484375,1184.466796875 C731.9065755208331,1183.853515625 732.9583333333335,1183.0445963541667 734.119140625,1182.037109375 C735.3018391927085,1181.0296223958333 736.4081217447916,1180.0211588541667 737.4375,1179.013671875 C738.4668782552084,1178.0062662760417 739.1893310546874,1177.3722330729167 739.60546875,1177.109375 C739.8244628906249,1176.9341634114583 740.4152425130206,1175.6622721354167 741.37890625,1173.296875 C742.3645019531249,1170.9315592447917 743.5479329427081,1167.975830078125 744.927734375,1164.427734375 C746.3294270833331,1160.879638671875 747.8289388020835,1156.9812825520833 749.427734375,1152.732421875 C751.0265706380209,1148.4834798177083 752.5825195312499,1144.3443196614583 754.09375,1140.314453125 C755.6049397786459,1136.2845052083333 756.9633789062499,1132.6044108072917 758.16796875,1129.275390625 C759.3725585937499,1125.9463704427083 760.2699788411456,1123.44970703125 760.861328125,1121.78515625 C761.8468831380209,1118.8065592447917 762.8327636718749,1115.6306966145833 763.818359375,1112.2578125 C764.8258463541665,1108.8849283854167 765.7119954427084,1105.7090657552083 766.478515625,1102.73046875 C767.2670084635419,1099.7518717447917 767.891642252604,1097.2119140625 768.3515625,1095.109375 C768.811482747396,1093.0067545572917 768.9977213541666,1091.7801106770833 768.91015625,1091.4296875 C768.8225097656251,1091.0792643229167 768.0342203776044,1090.640869140625 766.544921875,1090.115234375 C765.055623372396,1089.589599609375 763.3905436197916,1089.1305338541667 761.55078125,1088.736328125 C759.7329508463541,1088.3421223958333 758.0358886718751,1088.0560709635417 756.458984375,1087.880859375 C754.8820800781249,1087.7056477864583 753.9187825520831,1087.7941080729167 753.568359375,1088.14453125 C752.9551188151041,1088.8453776041667 751.3991699218751,1091.1670735677083 748.90234375,1095.109375 C746.4055989583334,1099.0515950520833 743.5363769531249,1104.4381510416667 740.294921875,1111.271484375 C738.9151204427085,1114.0748697916667 737.3065592447916,1117.2733561197917 735.466796875,1120.865234375 C733.9337158203125,1123.9314778645833 732.1256103515625,1127.6322428385417 730.044921875,1131.96875 C727.9862060546874,1136.3052571614583 725.6870930989581,1141.1461588541667 723.146484375,1146.490234375 C722.9055582682294,1142.8107096354167 722.796427408854,1139.0215657552083 722.818359375,1135.123046875 C722.8621419270835,1131.224609375 722.9280192057291,1127.655517578125 723.015625,1124.4140625 C723.0594075520834,1120.64697265625 723.2004394531249,1117.0100911458333 723.44140625,1113.505859375 C723.4851888020835,1110.0891927083333 723.6601969401041,1106.49755859375 723.966796875,1102.73046875 C724.2734374999999,1098.96337890625 724.5368245442706,1095.5467122395833 724.755859375,1092.48046875 C724.9967447916666,1089.414306640625 725.1604003906251,1086.8743489583333 725.248046875,1084.859375 C725.3575032552085,1082.8444010416667 725.2371012369791,1081.8359375 724.88671875,1081.8359375 ZM438.384765625,1082.673828125 C438.0343373616536,1082.684794108073 437.80949910481786,1082.7120361328125 437.7109375,1082.755859375 C436.9005737304688,1083.19384765625 436.0576985677083,1084.136474609375 435.181640625,1085.58203125 C434.30556233723956,1087.0275065104167 433.680908203125,1088.4950358072917 433.30859375,1089.984375 C432.9581705729166,1091.3860677083333 432.6966959635417,1092.8084309895833 432.521484375,1094.25390625 C432.34627278645826,1095.699462890625 432.36692301432294,1096.685302734375 432.5859375,1097.2109375 C432.6954549153645,1097.4737141927083 433.1112467447917,1097.6713053385417 433.833984375,1097.802734375 C434.5567423502605,1097.9341634114583 435.41090901692706,1098.0226236979167 436.396484375,1098.06640625 C437.4039510091145,1098.1101888020833 438.43503824869794,1098.130859375 439.486328125,1098.130859375 L442.244140625,1098.130859375 C441.45568847656244,1103.1244303385417 440.7125651041667,1107.767822265625 440.01171875,1112.060546875 C439.3108723958333,1116.353271484375 438.697509765625,1120.119873046875 438.171875,1123.361328125 C437.60241699218744,1127.12841796875 437.03232828776044,1130.5450846354167 436.462890625,1133.611328125 C435.871561686198,1136.76513671875 435.31276448567706,1140.1385904947917 434.787109375,1143.73046875 C434.30527750651044,1146.7967122395833 433.7464599609375,1150.3451334635417 433.111328125,1154.375 C432.4761555989583,1158.4048665364583 431.83087158203125,1162.6531575520833 431.173828125,1167.12109375 C429.5750122070312,1167.208740234375 428.2937418619792,1167.25390625 427.330078125,1167.25390625 L424.96484375,1167.25390625 C424.35162353515625,1167.25390625 423.90191650390625,1167.2745768229167 423.6171875,1167.318359375 C423.35437011718756,1167.3621419270833 423.1022542317708,1167.5164388020833 422.861328125,1167.779296875 C422.07287597656256,1168.918212890625 421.2187093098958,1171.019775390625 420.298828125,1174.0859375 C419.9484049479167,1175.4877115885417 419.9051513671875,1176.6278483072917 420.16796875,1177.50390625 C420.4308064778645,1178.3799641927083 420.8691813151042,1179.03662109375 421.482421875,1179.474609375 C421.78904215494794,1179.6498209635417 422.7523193359375,1179.7156575520833 424.373046875,1179.671875 C426.01566569010424,1179.6280924479167 427.85573323567706,1179.5170084635417 429.892578125,1179.341796875 C431.95135498046875,1179.1665852864583 433.955078125,1178.9484049479167 435.904296875,1178.685546875 C437.8535563151041,1178.4227701822917 439.3436686197917,1178.1593424479167 440.373046875,1177.896484375 C441.7747395833334,1177.5460611979167 443.8988850911458,1176.6260579427083 446.74609375,1175.13671875 C449.61521402994794,1173.6474609375 452.593505859375,1171.9390462239583 455.681640625,1170.01171875 C458.79166666666674,1168.0843098958333 461.64955647786456,1166.1577962239583 464.255859375,1164.23046875 C466.88405354817706,1162.3031412760417 468.65826416015625,1160.7264811197917 469.578125,1159.5 C470.3446858723959,1158.5362955729167 471.14430745442706,1157.2437337239583 471.9765625,1155.623046875 C472.80883789062494,1154.0022786458333 473.54258219401044,1152.337158203125 474.177734375,1150.62890625 C474.81286621093744,1148.9205729166667 475.3058268229167,1147.343994140625 475.65625,1145.8984375 C476.0066731770833,1144.4529622395833 476.0499267578125,1143.3805338541667 475.787109375,1142.6796875 C475.56809488932294,1142.154052734375 474.97735595703125,1141.431640625 474.013671875,1140.51171875 C473.05000813802076,1139.5918782552083 471.8232828776042,1138.5833333333333 470.333984375,1137.48828125 C468.84466552734375,1136.3931477864583 467.22479248046875,1135.2323404947917 465.47265625,1134.005859375 C463.72054036458326,1132.7793782552083 461.9669596354167,1131.64111328125 460.21484375,1130.58984375 C464.28853352864576,1128.5748697916667 467.9686686197917,1126.778076171875 471.25390625,1125.201171875 C474.12302652994794,1123.7994791666667 476.7626953125,1122.4430338541667 479.171875,1121.12890625 C481.6029459635416,1119.8148600260417 483.05918375651044,1118.894775390625 483.541015625,1118.369140625 C484.1542561848958,1117.6682942708333 484.7449951171875,1116.2440592447917 485.314453125,1114.09765625 C485.8838907877603,1111.9513346354167 486.35422770182294,1109.6522623697917 486.7265625,1107.19921875 C487.1207885742187,1104.7462565104167 487.3616129557292,1102.5110677083333 487.44921875,1100.49609375 C487.5368245442709,1098.481201171875 487.41640218098956,1097.2544759114583 487.087890625,1096.81640625 C486.3213297526041,1095.6775716145833 484.76731363932294,1094.5186360677083 482.423828125,1093.3359375 C480.08034261067706,1092.1532389322917 477.58367919921875,1091.0789388020833 474.93359375,1090.115234375 C472.2835083007812,1089.151611328125 469.7981363932292,1088.2974446614583 467.4765625,1087.552734375 C465.1549886067708,1086.80810546875 463.576416015625,1086.3490397135417 462.744140625,1086.173828125 C462.2403971354166,1086.086181640625 461.3223063151042,1085.9112141927083 459.986328125,1085.6484375 C458.65030924479174,1085.3855794270833 457.0943196614583,1085.0995279947917 455.3203125,1084.79296875 C453.5681559244792,1084.486328125 451.6961669921875,1084.1796875 449.703125,1083.873046875 C447.73197428385424,1083.56640625 445.8919270833333,1083.304931640625 444.18359375,1083.0859375 C442.4971923828125,1082.866943359375 441.04095458984375,1082.7352701822917 439.814453125,1082.69140625 C439.21215820312494,1082.6695149739583 438.7351938883464,1082.662862141927 438.384765625,1082.673828125 ZM691.458984375,1084.078125 C691.4044874608517,1084.0755206346512 691.3449015617371,1084.0774097442627 691.28125,1084.08203125 C690.8569062550862,1084.1128412882488 690.2275899251302,1084.3062235514324 689.392578125,1084.662109375 C688.0784912109376,1085.2315266927083 686.5996500651041,1086.085693359375 684.95703125,1087.224609375 C683.3363037109375,1088.363525390625 681.7483723958334,1089.6993001302083 680.193359375,1091.232421875 C678.6383056640625,1092.7654622395833 677.522705078125,1094.36474609375 676.84375,1096.029296875 C676.2962239583334,1097.2557779947917 675.6169840494791,1099.59814453125 674.806640625,1103.05859375 C673.9962972005209,1106.51904296875 673.1195068359375,1110.5716959635417 672.177734375,1115.21484375 C669.2428792317709,1115.3900553385417 666.7575276692709,1115.6082356770833 664.720703125,1115.87109375 C662.683837890625,1116.1338704427083 661.6321207682291,1116.3972981770833 661.56640625,1116.66015625 C661.4788411458334,1117.0105794270833 661.4242757161459,1117.55810546875 661.40234375,1118.302734375 C661.40234375,1119.0474446614583 661.4136149088541,1119.8131510416667 661.435546875,1120.6015625 C661.4793294270834,1121.3900553385417 661.5452067057291,1122.1144205729167 661.6328125,1122.771484375 C661.7423095703125,1123.428466796875 661.8627115885416,1123.84423828125 661.994140625,1124.01953125 C662.9139811197916,1124.1947428385417 663.8114420572916,1124.3697102864583 664.6875,1124.544921875 C665.5635579427084,1124.7201334635417 666.4289957682291,1124.8951009114583 667.283203125,1125.0703125 C668.2030436197916,1125.2455240885417 669.1343994140625,1125.3772786458333 670.076171875,1125.46484375 C669.243896484375,1129.23193359375 668.4649251302084,1133.3052571614583 667.7421875,1137.685546875 C666.99755859375,1141.45263671875 666.209228515625,1145.7666829427083 665.376953125,1150.62890625 C664.544677734375,1155.4910481770833 663.6905110677084,1160.595458984375 662.814453125,1165.939453125 C662.7049560546875,1166.7278645833333 662.8159993489584,1167.6253255208333 663.14453125,1168.6328125 C663.4730224609375,1169.6402994791667 663.8888346354166,1170.6035970052083 664.392578125,1171.5234375 C664.918212890625,1172.443359375 665.4976399739584,1173.2110188802083 666.1328125,1173.82421875 C666.7898356119791,1174.4375 667.4370930989584,1174.698974609375 668.072265625,1174.611328125 C668.3569742838541,1174.5237630208333 668.990966796875,1173.0787760416667 669.9765625,1170.275390625 C670.9621175130209,1167.471923828125 672.13427734375,1163.814453125 673.4921875,1159.302734375 C674.8719889322916,1154.791015625 676.3395182291666,1149.6885579427083 677.89453125,1143.994140625 C679.4495442708334,1138.2997233072917 680.9829508463541,1132.5613606770833 682.494140625,1126.779296875 L685.25390625,1126.779296875 C686.0423583984374,1126.779296875 686.8626302083334,1126.7999674479167 687.716796875,1126.84375 C688.5928548177081,1126.8876139322917 689.4809163411459,1126.866943359375 690.37890625,1126.779296875 C690.6197916666665,1126.5165201822917 691.0130208333334,1125.7940266927083 691.560546875,1124.611328125 C692.1081136067709,1123.4286295572917 692.6668701171875,1122.1134440104167 693.236328125,1120.66796875 C693.8057454427084,1119.222412109375 694.276123046875,1117.9092610677083 694.6484375,1116.7265625 C695.0427246093749,1115.5438639322917 695.2289632161459,1114.8213704427083 695.20703125,1114.55859375 C695.1632080078125,1114.3833821614583 694.2225341796875,1114.2722981770833 692.3828125,1114.228515625 C690.5649820963541,1114.1846516927083 688.3204345703125,1114.2505696614583 685.6484375,1114.42578125 C686.6121012369794,1110.3959147135417 687.5301920572916,1106.5633951822917 688.40625,1102.927734375 C689.30419921875,1099.2920735677083 690.0379638671875,1096.1162109375 690.607421875,1093.400390625 C691.198771158854,1090.6845703125 691.6051839192709,1088.5171712239583 691.82421875,1086.896484375 C692.043212890625,1085.2757161458333 692.043212890625,1084.3763834635417 691.82421875,1084.201171875 C691.7441444396973,1084.1272659301758 691.622475117445,1084.0859380960464 691.458984375,1084.078125 ZM336.1328125,1084.333984375 C332.1029052734375,1084.333984375 327.7342529296875,1084.3772786458333 323.025390625,1084.46484375 C318.3165283203125,1084.552490234375 313.9252522786458,1084.6841634114583 309.8515625,1084.859375 C305.77785237630206,1085.0345865885417 302.33856201171875,1085.2095540364583 299.53515625,1085.384765625 C296.73175048828125,1085.5599772135417 295.22096761067706,1085.7349446614583 295.001953125,1085.91015625 C294.6734212239583,1086.1729329427083 294.42128499348956,1086.763671875 294.24609375,1087.68359375 C294.07086181640625,1088.6034342447917 293.984375,1089.58935546875 293.984375,1090.640625 C293.984375,1091.69189453125 294.0595703125,1092.7210286458333 294.212890625,1093.728515625 C294.36619059244794,1094.7360026041667 294.5750732421875,1095.4152018229167 294.837890625,1095.765625 C295.10072835286456,1096.1160481770833 296.47043863932294,1096.59765625 298.9453125,1097.2109375 C301.4420979817708,1097.8241373697917 305.59059651692706,1098.4375 311.39453125,1099.05078125 C310.868896484375,1102.292236328125 310.20098876953125,1106.3655598958333 309.390625,1111.271484375 C308.58026123046875,1116.177490234375 307.6621907552083,1121.4342447916667 306.6328125,1127.041015625 C305.62534586588544,1132.6478678385417 304.6055501302083,1138.2997233072917 303.576171875,1143.994140625 C302.5467936197917,1149.6885579427083 301.59482828776044,1154.8568522135417 300.71875,1159.5 C299.8426920572917,1164.1431477864583 299.140869140625,1167.9982096354167 298.615234375,1171.064453125 C298.089599609375,1174.1306966145833 297.828125,1175.8390299479167 297.828125,1176.189453125 C297.9157307942708,1176.8902994791667 298.222412109375,1177.6993001302083 298.748046875,1178.619140625 C299.273681640625,1179.5389811197917 299.8644205729167,1180.4383951822917 300.521484375,1181.314453125 C301.17852783203125,1182.1905924479167 301.8577473958333,1182.8697916666667 302.55859375,1183.3515625 C303.28135172526044,1183.8334147135417 303.84950764973956,1183.9424641927083 304.265625,1183.6796875 C304.4846598307292,1183.5044759114583 305.1092936197917,1181.8394368489583 306.138671875,1178.685546875 C307.18994140625,1175.53173828125 308.45054117838544,1171.4584147135417 309.91796875,1166.46484375 C311.4072672526042,1161.4712727864583 313.0045572916667,1155.9078776041667 314.712890625,1149.775390625 C316.4212239583333,1143.6429850260417 318.12957763671875,1137.5320638020833 319.837890625,1131.443359375 C321.54620361328125,1125.354736328125 323.0909016927083,1119.638916015625 324.470703125,1114.294921875 C325.87241617838544,1108.950927734375 326.99001057942706,1104.5709635416667 327.822265625,1101.154296875 C333.0786539713542,1101.8551432291667 337.1519368489583,1102.2709147135417 340.04296875,1102.40234375 C342.9558919270833,1102.5337727864583 344.598388671875,1102.3794759114583 344.970703125,1101.94140625 C345.24111709026613,1101.6464091969824 345.5579987632123,1101.118681781048 345.904296875,1100.451171875 C346.07552351467194,1099.9018529935627 346.3663777048719,1098.559689301359 346.51953125,1098.130859375 C346.8722717019431,1097.3078589976005 347.3396034516225,1096.5037448495286 347.86328125,1095.70703125 C348.1671154974587,1094.8919976537159 348.50037953324824,1094.1121333323215 348.78125,1093.26953125 C349.4164021809897,1091.4298502604167 349.89803059895826,1089.721435546875 350.2265625,1088.14453125 C350.5769856770833,1086.5675455729167 350.67675781250006,1085.55908203125 350.5234375,1085.12109375 C350.41394042968744,1084.8582356770833 348.9896647135416,1084.66259765625 346.251953125,1084.53125 C343.53615315755206,1084.3998209635417 340.1626993815105,1084.333984375 336.1328125,1084.333984375 ZM347.86328125,1095.70703125 C347.5037147928362,1096.6715661736846 347.1690711137823,1097.6658717741652 346.77734375,1098.591796875 C346.4602124316698,1099.3413783679641 346.1750433233661,1099.9292922280715 345.904296875,1100.451171875 C345.09608515062837,1103.0440275267079 344.21477951009905,1106.1269940428376 343.00390625,1111.404296875 C342.34686279296875,1114.1200358072917 341.61309814453125,1117.405029296875 340.802734375,1121.259765625 C339.9923909505208,1125.1144205729167 339.0723470052083,1129.6693522135417 338.04296875,1134.92578125 C337.0354817708333,1140.18212890625 335.9178873697917,1146.20458984375 334.69140625,1152.994140625 C333.48681640625,1159.7836100260417 332.18491617838544,1167.47119140625 330.783203125,1176.056640625 C330.76129150390625,1176.8451334635417 330.89300537109375,1177.8103841145833 331.177734375,1178.94921875 C331.48435465494794,1180.088134765625 331.900146484375,1181.1604817708333 332.42578125,1182.16796875 C332.97332763671875,1183.1754557291667 333.57537841796875,1184.0296223958333 334.232421875,1184.73046875 C334.911376953125,1185.4313151041667 335.61122639973956,1185.738037109375 336.333984375,1185.650390625 C336.70631917317706,1185.5628255208333 337.4081217447917,1184.0068359375 338.4375,1180.984375 C339.48876953125,1177.9619954427083 340.7474365234375,1173.9771321614583 342.21484375,1169.02734375 C343.68225097656256,1164.0775553385417 345.2588704427084,1158.4915364583333 346.9453125,1152.271484375 C348.6536254882813,1146.0514322916667 350.3413289388022,1139.70166015625 352.005859375,1133.21875 C352.5972086588541,1132.9559733072917 353.27640787760424,1132.6925455729167 354.04296875,1132.4296875 C354.61238606770826,1132.2544759114583 355.3009440104167,1132.0343424479167 356.111328125,1131.771484375 C356.9216715494792,1131.5087076822917 357.74389648437494,1131.2904459635417 358.576171875,1131.115234375 C359.1456095377605,1130.9400227864583 359.6498616536458,1131.114990234375 360.087890625,1131.640625 C360.5259399414063,1132.166259765625 360.8645833333334,1132.9112955729167 361.10546875,1133.875 C361.34639485677076,1134.838623046875 361.4554850260417,1135.99951171875 361.43359375,1137.357421875 C361.4117024739583,1138.71533203125 361.19348144531256,1140.0944010416667 360.77734375,1141.49609375 C360.6897379557291,1141.8465169270833 360.339823404948,1142.9867350260417 359.7265625,1144.9140625 C359.13523356119794,1146.8414713541667 358.42211914062494,1149.1405436197917 357.58984375,1151.8125 C356.75758870442706,1154.4845377604167 355.8601684570313,1157.353759765625 354.896484375,1160.419921875 C353.9328206380208,1163.4861653645833 353.05603027343756,1166.3326822916667 352.267578125,1168.9609375 C351.50101725260424,1171.589111328125 350.8670247395833,1173.844970703125 350.36328125,1175.728515625 C349.8595377604167,1177.612060546875 349.60742187499994,1178.7296549479167 349.607421875,1179.080078125 C349.67313639322924,1179.605712890625 350.0569661458333,1180.0441080729167 350.7578125,1180.39453125 C351.4586791992187,1180.7449544270833 352.2469889322916,1181.0064290364583 353.123046875,1181.181640625 C353.9991251627605,1181.3568522135417 354.8626302083333,1181.402099609375 355.716796875,1181.314453125 C356.5709431966145,1181.2268880208333 357.1184488932292,1181.0519205729167 357.359375,1180.7890625 C357.49078369140625,1180.6138509114583 357.974365234375,1179.6937662760417 358.806640625,1178.029296875 C359.6607869466147,1176.36474609375 360.64473470052076,1174.3045247395833 361.76171875,1171.8515625 C362.8787027994792,1169.3986002604167 364.1054077148437,1166.6837565104167 365.44140625,1163.705078125 C366.79931640625,1160.7264811197917 368.08056640625,1157.8140462239583 369.28515625,1154.966796875 C370.5116373697917,1152.11962890625 371.59729003906244,1149.4912109375 372.5390625,1147.08203125 C373.48083496093744,1144.6728515625 374.1035563151041,1142.8553873697917 374.41015625,1141.62890625 C374.8482259114583,1139.7891438802083 375.10034179687506,1137.8400065104167 375.166015625,1135.78125 C375.2317301432292,1133.7224934895833 375.13391113281244,1131.7939453125 374.87109375,1129.998046875 C374.60827636718756,1128.2020670572917 374.2244466145834,1126.6028645833333 373.720703125,1125.201171875 C373.2388712565105,1123.7994791666667 372.62550862630206,1122.836181640625 371.880859375,1122.310546875 C370.3258463541666,1121.171630859375 367.99283854166674,1120.7784830729167 364.8828125,1121.12890625 C361.7727864583334,1121.4793294270833 358.29024251302076,1122.3541666666667 354.435546875,1123.755859375 C355.7715454101562,1118.6747233072917 356.9982706705728,1113.835693359375 358.115234375,1109.236328125 C359.2322184244791,1104.6370442708333 360.17484537760424,1100.561767578125 360.94140625,1097.013671875 C361.7298787434897,1093.465576171875 362.277364095052,1090.6189778645833 362.583984375,1088.47265625 C362.8906046549478,1086.3262532552083 362.9451700846355,1085.1221516927083 362.748046875,1084.859375 C362.39762369791674,1084.5089518229167 361.5002034505208,1084.6612955729167 360.0546875,1085.318359375 C358.631103515625,1085.975341796875 357.0318603515625,1086.9612630208333 355.2578125,1088.275390625 C353.50569661458326,1089.5895182291667 351.8086344401042,1091.1002604166667 350.166015625,1092.80859375 C349.25823937902,1093.7526864426904 348.51019840734534,1094.722823596702 347.86328125,1095.70703125 ZM573.748046875,1096.505859375 C572.0616251627604,1096.3634847005208 570.3419799804688,1096.3794759114585 568.58984375,1096.5546875 C567.3414306640625,1096.642333984375 566.0488688151041,1097.694091796875 564.712890625,1099.708984375 C563.3988037109375,1101.7239583333333 562.0856119791666,1104.352294921875 560.771484375,1107.59375 C559.4573974609375,1110.835205078125 558.1874186197916,1114.5133463541667 556.9609375,1118.630859375 C555.7344563802084,1122.7483723958333 554.6168619791666,1126.91015625 553.609375,1131.115234375 C552.5799967447916,1135.3203125 551.8123372395834,1139.5253092447917 551.30859375,1143.73046875 C550.8048502604166,1147.935546875 550.4981689453125,1151.7906087239583 550.388671875,1155.294921875 C550.2791748046875,1158.7991536458333 550.2791748046875,1161.7548828125 550.388671875,1164.1640625 C550.4981689453125,1166.5732421875 550.6637776692709,1168.0859375 550.8828125,1168.69921875 C551.0799153645834,1169.3124186197917 551.8456217447916,1170.1666666666667 553.181640625,1171.26171875 C554.5395100911459,1172.3568522135417 556.0729166666666,1173.42919921875 557.78125,1174.48046875 C559.511474609375,1175.53173828125 561.2423909505209,1176.4517415364583 562.97265625,1177.240234375 C564.702880859375,1178.0286458333333 566.0386962890625,1178.467041015625 566.98046875,1178.5546875 C567.9222005208334,1178.6422526041667 569.0604654947916,1177.6337890625 570.396484375,1175.53125 C571.75439453125,1173.4287109375 573.0902099609375,1171.0205078125 574.404296875,1168.3046875 C575.7402750651041,1165.5888671875 576.901123046875,1162.917236328125 577.88671875,1160.2890625 C578.8722737630209,1157.660888671875 579.4856363932291,1155.8640950520833 579.7265625,1154.900390625 C579.8579915364584,1154.374755859375 580.0216471354166,1153.6729329427083 580.21875,1152.796875 C580.4377848307291,1151.9208170572917 580.580810546875,1151.066650390625 580.646484375,1150.234375 C580.7340901692709,1149.402099609375 580.7454020182291,1148.6796061197917 580.6796875,1148.06640625 C580.614013671875,1147.453125 580.3618570963541,1147.146484375 579.923828125,1147.146484375 C579.1353759765625,1147.146484375 578.06298828125,1147.564208984375 576.705078125,1148.396484375 C575.3690592447916,1149.228759765625 574.2082112630209,1150.2127278645833 573.22265625,1151.3515625 C572.8503011067709,1151.7896321614583 572.2030436197916,1152.7322591145833 571.283203125,1154.177734375 C570.3633219401041,1155.623291015625 569.3341878255209,1157.1566569010417 568.1953125,1158.77734375 C567.0564371744791,1160.3981119791667 565.9614664713541,1161.8203938802083 564.91015625,1163.046875 C563.8808186848959,1164.2733561197917 563.1038004557291,1164.88671875 562.578125,1164.88671875 C561.98681640625,1164.799072265625 561.5484212239584,1164.1424967447917 561.263671875,1162.916015625 C561.0008544921875,1161.6895345052083 560.9123942057291,1160.0696614583333 561.0,1158.0546875 C561.1094970703125,1156.039794921875 561.3616129557291,1153.6954752604167 561.755859375,1151.0234375 C562.1501057942709,1148.3514811197917 562.7089029947916,1145.5255533854167 563.431640625,1142.546875 C564.4391276041666,1138.4293619791667 565.6432291666666,1134.4444986979167 567.044921875,1130.58984375 C568.468505859375,1126.7351888020833 569.8701985677084,1123.3185221354167 571.25,1120.33984375 C572.6517333984375,1117.3612467447917 573.8896891276041,1114.9077962239583 574.962890625,1112.98046875 C576.0579427083334,1111.0531412760417 576.7804361979166,1109.9148763020833 577.130859375,1109.564453125 C577.7003173828125,1108.951171875 578.51123046875,1108.8194986979167 579.5625,1109.169921875 C580.6357014973959,1109.5203450520833 581.3035888671875,1109.8702799479167 581.56640625,1110.220703125 C581.632080078125,1110.308349609375 581.5775553385416,1110.9443359375 581.40234375,1112.126953125 C581.2490641276041,1113.3096516927083 581.0308430989584,1114.7545572916667 580.74609375,1116.462890625 C580.4613850911459,1118.1712239583333 580.1640218098959,1120.0338541666667 579.857421875,1122.048828125 C579.55078125,1124.0638020833333 579.2893473307291,1125.9471028645833 579.0703125,1127.69921875 C578.851318359375,1129.4513346354167 578.7309163411459,1130.9188639322917 578.708984375,1132.1015625 C578.6870930989584,1133.2842610677083 578.828125,1133.9615071614583 579.134765625,1134.13671875 C579.9670003255209,1134.662353515625 581.0187581380209,1134.4873860677083 582.2890625,1133.611328125 C583.5593668619791,1132.7352701822917 584.6882731119791,1131.9037272135417 585.673828125,1131.115234375 C586.0899658203125,1130.8523763020833 586.7578531901041,1129.8232421875 587.677734375,1128.02734375 C588.5975748697916,1126.2314453125 589.5176188151041,1124.2163899739583 590.4375,1121.982421875 C591.3792724609375,1119.7484537760417 592.2221272786459,1117.535888671875 592.966796875,1115.345703125 C593.7333577473959,1113.155517578125 594.226318359375,1111.4471842447917 594.4453125,1110.220703125 C594.6205240885416,1109.081787109375 594.0391031901041,1107.659423828125 592.703125,1105.951171875 C591.3890380859375,1104.2428385416667 589.5396321614584,1102.6210123697917 587.15234375,1101.087890625 C584.7650553385416,1099.5547688802083 581.950439453125,1098.3280436197917 578.708984375,1097.408203125 C577.0882771809896,1096.9482421875 575.4344685872396,1096.6482340494792 573.748046875,1096.505859375 ZM821.5390625,1099.36328125 C820.9477157592775,1099.3304290771484 820.5526123046875,1099.4461669921875 820.35546875,1099.708984375 C820.0050455729165,1100.0594075520833 819.6231282552084,1101.0000813802083 819.20703125,1102.533203125 C818.7908528645835,1104.0663248697917 818.3524576822916,1105.8631184895833 817.892578125,1107.921875 C817.4326171875001,1109.9806315104167 816.9623209635416,1112.1705729166667 816.48046875,1114.4921875 C815.9986572265624,1116.813720703125 815.5808919270834,1118.8946126302083 815.23046875,1120.734375 C814.9895426432294,1122.0484212239583 814.5963541666666,1124.1951497395833 814.048828125,1127.173828125 C813.5013020833335,1130.1524251302083 812.9105631510416,1133.480712890625 812.275390625,1137.16015625 C811.6402180989584,1140.8396809895833 811.0042724609375,1144.672119140625 810.369140625,1148.658203125 C809.7559000651041,1152.644287109375 809.185791015625,1156.3243815104167 808.66015625,1159.697265625 C808.1564127604166,1163.070068359375 807.751953125,1165.9166666666667 807.4453125,1168.23828125 C807.1387125651041,1170.559814453125 807.0841064453125,1171.8523763020833 807.28125,1172.115234375 C807.4126383463544,1172.640869140625 807.9169108072916,1172.7067057291667 808.79296875,1172.3125 C809.6909179687501,1171.918212890625 810.6767985026041,1171.3274739583333 811.75,1170.5390625 C812.8231608072919,1169.7505696614583 813.8184000651041,1168.8964029947917 814.73828125,1167.9765625 C815.658162434896,1167.056640625 816.2715250651041,1166.332275390625 816.578125,1165.806640625 C816.7314453124999,1165.5438639322917 817.1039632161459,1164.3623046875 817.6953125,1162.259765625 C818.3085530598956,1160.1571451822917 818.9877522786459,1157.637939453125 819.732421875,1154.703125 C820.498982747396,1151.768310546875 821.3192545572916,1148.56982421875 822.1953125,1145.109375 C823.0932617187501,1141.64892578125 823.9267985026041,1138.4297688802083 824.693359375,1135.451171875 C825.4818115234376,1132.4725748697917 826.1271158854166,1129.9100748697917 826.630859375,1127.763671875 C827.1564941406251,1125.6173502604167 827.4631754557291,1124.3699544270833 827.55078125,1124.01953125 C827.8355305989584,1122.880615234375 828.19677734375,1121.8721516927083 828.634765625,1120.99609375 C829.0728352864584,1120.1200358072917 829.3475341796875,1119.5951334635417 829.45703125,1119.419921875 C829.9826660156249,1118.7190755208333 830.6166585286459,1118.105712890625 831.361328125,1117.580078125 C831.9964599609376,1117.1420084635417 832.7528483072916,1116.7262369791667 833.62890625,1116.33203125 C834.5268961588544,1115.937744140625 835.5673014322916,1115.6517740885417 836.75,1115.4765625 C837.2318115234375,1115.3013509114583 837.6815185546875,1115.4988606770833 838.09765625,1116.068359375 C838.5356445312501,1116.6377766927083 838.8403727213541,1117.44873046875 839.015625,1118.5 C839.2127685546874,1119.55126953125 839.2786458333334,1120.800537109375 839.212890625,1122.24609375 C839.1691080729166,1123.6915690104167 838.962158203125,1125.202392578125 838.58984375,1126.779296875 C838.4803059895831,1127.2173665364583 838.0965169270834,1128.4873046875 837.439453125,1130.58984375 C836.8043619791669,1132.6923828125 836.0160319010416,1135.211669921875 835.07421875,1138.146484375 C834.1543782552085,1141.081298828125 833.1910807291666,1144.2345377604167 832.18359375,1147.607421875 C831.1979980468751,1150.980224609375 830.2779947916666,1154.1334635416667 829.423828125,1157.068359375 C828.5697021484375,1160.003173828125 827.8585205078125,1162.5224609375 827.2890625,1164.625 C826.7415364583334,1166.7275390625 826.466796875,1167.9542643229167 826.466796875,1168.3046875 C826.5324707031251,1168.830322265625 826.8937174479166,1169.2687174479167 827.55078125,1169.619140625 C828.2078450520835,1169.9695638020833 828.9755045572916,1170.2310384114583 829.8515625,1170.40625 C830.7276204427081,1170.5814615885417 831.5365804036459,1170.6472981770833 832.28125,1170.603515625 C833.047810872396,1170.5597330729167 833.5520426432291,1170.4073893229167 833.79296875,1170.14453125 C833.9243570963541,1169.9693196614583 834.406005859375,1168.9608561197917 835.23828125,1167.12109375 C836.0924479166665,1165.2814127604167 837.1328938802084,1163.0048828125 838.359375,1160.2890625 C839.5858561197916,1157.5732421875 840.87841796875,1154.5723470052083 842.236328125,1151.287109375 C843.6161295572919,1148.0018717447917 844.9519449869791,1144.8033854166667 846.244140625,1141.693359375 C847.536336263021,1138.5833333333333 848.6539713541666,1135.714111328125 849.595703125,1133.0859375 C850.5375162760419,1130.4576822916667 851.1827799479166,1128.4427083333333 851.533203125,1127.041015625 C852.0150553385416,1125.026123046875 852.3330078125,1122.9019368489583 852.486328125,1120.66796875 C852.639607747396,1118.4340006510417 852.6283365885416,1116.3098958333333 852.453125,1114.294921875 C852.2998453776044,1112.2799479166667 851.9818522135416,1110.5283203125 851.5,1109.0390625 C851.0400390625,1107.5497233072917 850.4925537109375,1106.498046875 849.857421875,1105.884765625 C848.8280436197915,1105.0963541666667 847.5354817708334,1104.6353352864583 845.98046875,1104.50390625 C844.4473470052081,1104.3724772135417 842.7729085286459,1104.5042317708333 840.955078125,1104.8984375 C839.1591796874999,1105.292724609375 837.2871907552084,1105.86279296875 835.337890625,1106.607421875 C833.4105631510419,1107.35205078125 831.6024576822916,1108.1629231770833 829.916015625,1109.0390625 C830.0912272135416,1107.5497233072917 830.1251220703125,1106.4754231770833 830.015625,1105.818359375 C829.928019205729,1105.1612955729167 829.8621419270834,1104.570556640625 829.818359375,1104.044921875 C829.5993245442709,1103.4317220052083 829.04052734375,1102.7957356770833 828.142578125,1102.138671875 C827.2665201822915,1101.4816080729167 826.2919514973959,1100.9134928385417 825.21875,1100.431640625 C824.1674804687501,1099.9497884114583 823.1589762369791,1099.6205240885417 822.1953125,1099.4453125 C821.9543965657552,1099.4015096028645 821.7361780802408,1099.374231974284 821.5390625,1099.36328125 ZM457.916015625,1100.1015625 C460.21569824218744,1100.7147623697917 462.3398234049478,1101.3939615885417 464.2890625,1102.138671875 C466.26021321614576,1102.88330078125 467.9459635416667,1103.6077473958333 469.34765625,1104.30859375 C470.7712809244791,1105.0094401041667 471.856913248698,1105.7093098958333 472.6015625,1106.41015625 C473.34621175130206,1107.1110026041667 473.66223144531256,1107.6810709635417 473.552734375,1108.119140625 C473.2023111979166,1109.6084798177083 472.05277506510424,1111.3826497395833 470.103515625,1113.44140625 C468.1542765299478,1115.5001627604167 465.9529825846355,1117.5152180989583 463.5,1119.486328125 C461.0470174153647,1121.4574381510417 458.6388142903645,1123.2316080729167 456.2734375,1124.80859375 C453.9299723307291,1126.385498046875 452.12186686197924,1127.435302734375 450.8515625,1127.9609375 L457.916015625,1100.1015625 ZM533.12109375,1102.73046875 C532.1574300130209,1102.73046875 530.8987630208334,1103.3212076822917 529.34375,1104.50390625 C527.7887369791666,1105.6866048177083 526.1236572265625,1107.1993001302083 524.349609375,1109.0390625 C522.5974934895834,1110.8787434895833 520.8119710286459,1112.893798828125 518.994140625,1115.083984375 C517.1982014973959,1117.274169921875 515.5670166015625,1119.3982747395833 514.099609375,1121.45703125 C512.6322021484376,1123.5157877604167 511.3848470052083,1125.399169921875 510.35546875,1127.107421875 C509.32609049479174,1128.8157552083333 508.7672932942708,1130.0630696614583 508.6796875,1130.8515625 C508.5701904296875,1131.6400553385417 508.9859619140625,1132.7802734375 509.927734375,1134.26953125 C510.8913981119792,1135.7588704427083 512.1500651041664,1137.4219563802083 513.705078125,1139.26171875 C515.281982421875,1141.1013997395833 517.0016276041666,1143.0506184895833 518.86328125,1145.109375 C520.7249348958334,1147.1681315104167 522.4332682291666,1149.1192220052083 523.98828125,1150.958984375 C525.565185546875,1152.7987467447917 526.8238525390625,1154.4619140625 527.765625,1155.951171875 C528.7292887369791,1157.4405110677083 529.1563720703125,1158.5807291666667 529.046875,1159.369140625 C528.9154459635416,1159.8948567708333 528.5768229166666,1160.6172688802083 528.029296875,1161.537109375 C527.503662109375,1162.4569498697917 526.9129231770834,1163.3544108072917 526.255859375,1164.23046875 C525.6207275390625,1165.1065266927083 524.9527994791666,1165.8722330729167 524.251953125,1166.529296875 C523.572998046875,1167.1863606770833 523.0142008463541,1167.515625 522.576171875,1167.515625 C521.7877197265625,1167.515625 520.7360026041666,1166.6181640625 519.421875,1164.822265625 C518.1077880859375,1163.0262858072917 516.8039143880209,1161.0113118489583 515.51171875,1158.77734375 C514.2195231119791,1156.5433756510417 513.0041097005209,1154.5283203125 511.865234375,1152.732421875 C510.72633870442706,1150.9364420572917 509.89477539062506,1150.0390625 509.369140625,1150.0390625 C508.8434855143228,1150.0390625 508.2960001627605,1150.498046875 507.7265625,1151.41796875 C507.1571248372395,1152.3378092447917 506.64158121744794,1153.4554036458333 506.181640625,1154.76953125 C505.7217203776042,1156.0835774739583 505.3491821289062,1157.3968098958333 505.064453125,1158.7109375 C504.80163574218756,1160.0250651041667 504.7038167317709,1161.0768229166667 504.76953125,1161.865234375 C504.835225423177,1162.7412923177083 505.52573649088544,1164.1429850260417 506.83984375,1166.0703125 C508.1758422851562,1167.9977213541667 509.7637736002603,1169.9468587239583 511.603515625,1171.91796875 C513.4432373046875,1173.88916015625 515.3378499348959,1175.5974934895833 517.287109375,1177.04296875 C519.2582600911459,1178.4884440104167 520.8668619791666,1179.1676432291667 522.115234375,1179.080078125 C523.3636474609375,1178.992431640625 524.9854736328125,1178.1156412760417 526.978515625,1176.451171875 C528.9715576171875,1174.78662109375 530.9413655598959,1172.8168131510417 532.890625,1170.5390625 C534.83984375,1168.26123046875 536.57080078125,1165.8943684895833 538.08203125,1163.44140625 C539.6151529947916,1160.9884440104167 540.5238850911459,1158.973388671875 540.80859375,1157.396484375 C541.0495198567709,1156.0823567708333 540.7974039713541,1154.5057779947917 540.052734375,1152.666015625 C539.3299967447916,1150.8263346354167 538.3893229166666,1148.8771158854167 537.228515625,1146.818359375 C536.0677490234375,1144.7596028645833 534.7525634765625,1142.7013346354167 533.28515625,1140.642578125 C531.8177083333334,1138.5838216145833 530.449951171875,1136.6572265625 529.1796875,1134.861328125 C527.9093831380209,1133.0653483072917 526.857666015625,1131.5094401041667 526.025390625,1130.1953125 C525.2150472005209,1128.8812662760417 524.8763834635416,1127.961181640625 525.0078125,1127.435546875 C525.0954182942709,1126.7347005208333 525.5977376302084,1125.6397298177083 526.517578125,1124.150390625 C527.4593505859375,1122.6610514322917 528.5223795572916,1121.1728515625 529.705078125,1119.68359375 C530.90966796875,1118.1942545572917 532.0818277994791,1116.879150390625 533.220703125,1115.740234375 C534.3815104166666,1114.6013997395833 535.3108723958334,1114.03125 536.01171875,1114.03125 C536.7125651041666,1114.03125 537.3917643229166,1114.2288411458333 538.048828125,1114.623046875 C538.7058512369791,1115.0172526041667 539.1123046875,1115.4330240885417 539.265625,1115.87109375 C539.2218424479166,1116.7471516927083 539.0129801432291,1118.280517578125 538.640625,1120.470703125 C538.2902018229166,1122.6608072916667 537.9948323567709,1124.8734537760417 537.75390625,1127.107421875 C537.534912109375,1129.3413899739583 537.5461832682291,1131.29052734375 537.787109375,1132.955078125 C538.0279947916666,1134.61962890625 538.6732991536459,1135.451171875 539.724609375,1135.451171875 C541.2139078776041,1135.451171875 542.7360026041666,1134.7080891927083 544.291015625,1133.21875 C545.8460286458334,1131.7294921875 547.2364095052084,1129.9759114583333 548.462890625,1127.9609375 C549.6893717447916,1125.9459635416667 550.7410888671875,1123.9309895833333 551.6171875,1121.916015625 C552.51513671875,1119.901123046875 553.0400390625,1118.4129231770833 553.193359375,1117.44921875 C553.4342854817709,1116.1350911458333 552.87744140625,1114.6449381510417 551.51953125,1112.98046875 C550.1835123697916,1111.31591796875 548.4751790364584,1109.7167154947917 546.39453125,1108.18359375 C544.3138834635416,1106.6504720052083 542.0580240885416,1105.35986328125 539.626953125,1104.30859375 C537.2177734375,1103.25732421875 535.0484619140625,1102.73046875 533.12109375,1102.73046875 ZM505.595703125,1103.05859375 C504.2159016927084,1103.0148111979167 502.68251546223956,1103.2349446614583 500.99609375,1103.716796875 C499.30967203776044,1104.1986490885417 497.64459228515625,1104.8985188802083 496.001953125,1105.818359375 C494.38124593098956,1106.7381998697917 493.308837890625,1107.767333984375 492.783203125,1108.90625 C492.2356567382812,1110.045166015625 491.88376871744794,1111.2718912760417 491.73046875,1112.5859375 C491.5990397135417,1113.9000651041667 491.6103515625,1115.1041666666667 491.763671875,1116.19921875 C491.93888346354174,1117.2943522135417 492.2455647786458,1118.21435546875 492.68359375,1118.958984375 C493.12162272135424,1119.70361328125 493.6371663411458,1120.121337890625 494.228515625,1120.208984375 C494.97316487630206,1120.3841959635417 496.2318115234375,1120.318359375 498.005859375,1120.01171875 C499.77988688151044,1119.705078125 501.25872802734375,1118.9374186197917 502.44140625,1117.7109375 C503.0546468098959,1117.0100911458333 503.72255452473956,1116.0467936197917 504.4453125,1114.8203125 C505.1899820963541,1113.5938313802083 505.85788981119794,1112.3238932291667 506.44921875,1111.009765625 C507.0405680338541,1109.6957194010417 507.49961344401044,1108.42578125 507.828125,1107.19921875 C508.1785685221353,1105.9727376302083 508.2670084635417,1105.0094401041667 508.091796875,1104.30859375 C507.8289591471355,1103.5201822916667 506.9973958333333,1103.1024576822917 505.595703125,1103.05859375 ZM657.00390625,1103.05859375 C655.6241048177084,1103.0148111979167 654.0907389322916,1103.2349446614583 652.404296875,1103.716796875 C650.7178548177084,1104.1986490885417 649.0547281901041,1104.8985188802083 647.412109375,1105.818359375 C645.7913818359375,1106.7381998697917 644.717041015625,1107.767333984375 644.19140625,1108.90625 C643.6438802083334,1110.045166015625 643.2939453125,1111.2718912760417 643.140625,1112.5859375 C643.0092366536459,1113.9000651041667 643.0205485026041,1115.1041666666667 643.173828125,1116.19921875 C643.3490804036459,1117.2943522135417 643.6557210286459,1118.21435546875 644.09375,1118.958984375 C644.5317789713541,1119.70361328125 645.04541015625,1120.121337890625 645.63671875,1120.208984375 C646.3813883463541,1120.3841959635417 647.6419677734375,1120.318359375 649.416015625,1120.01171875 C651.1900227864584,1119.705078125 652.6669108072916,1118.9374186197917 653.849609375,1117.7109375 C654.4628499348959,1117.0100911458333 655.1326904296875,1116.0467936197917 655.85546875,1114.8203125 C656.60009765625,1113.5938313802083 657.2680257161459,1112.3238932291667 657.859375,1111.009765625 C658.4507242838541,1109.6957194010417 658.9097493489584,1108.42578125 659.23828125,1107.19921875 C659.5887044270834,1105.9727376302083 659.6771647135416,1105.0094401041667 659.501953125,1104.30859375 C659.2391357421875,1103.5201822916667 658.4055989583334,1103.1024576822917 657.00390625,1103.05859375 ZM784.86328125,1103.53515625 C782.8141326904296,1103.5680084228516 780.8939819335938,1104.0449829101562 779.103515625,1104.96484375 C777.89892578125,1105.5780436197917 776.54052734375,1107.0681966145833 775.029296875,1109.43359375 C773.5399983723956,1111.7989908854167 772.1496175130209,1114.295654296875 770.857421875,1116.923828125 C769.5652262369794,1119.552001953125 768.4702555338541,1121.9828287760417 767.572265625,1124.216796875 C766.6743164062501,1126.4507649739583 766.2698160807291,1127.7433268229167 766.357421875,1128.09375 C766.4669189453126,1128.3566080729167 766.9805094401041,1128.5747884114583 767.900390625,1128.75 C768.6450602213541,1128.9252115885417 769.805908203125,1129.0775553385417 771.3828125,1129.208984375 C772.9816080729166,1129.34033203125 775.325927734375,1129.3629557291667 778.4140625,1129.275390625 C779.6186523437501,1124.7198079427083 780.7794596354166,1121.3257649739583 781.896484375,1119.091796875 C783.0134277343751,1116.8578287760417 784.0312906901041,1115.3018391927083 784.951171875,1114.42578125 C785.9586588541669,1113.462158203125 786.9219156901041,1113.0689290364583 787.841796875,1113.244140625 C789.0025634765624,1113.5069173177083 789.9565022786459,1113.900146484375 790.701171875,1114.42578125 C791.4676920572916,1114.951416015625 792.0584716796875,1115.4330240885417 792.474609375,1115.87109375 C792.934529622396,1116.484375 793.3070475260416,1117.0977376302083 793.591796875,1117.7109375 C793.8765055338541,1118.6746419270833 793.7015380859375,1120.7987467447917 793.06640625,1124.083984375 C792.4531656901044,1127.3692220052083 791.7739664713541,1131.2469075520833 791.029296875,1135.71484375 C790.6350504557294,1135.5396321614583 789.6378580729166,1135.298828125 788.0390625,1134.9921875 C786.4621175130209,1134.685546875 784.667236328125,1134.422119140625 782.65234375,1134.203125 C780.6592610677081,1133.984130859375 778.6216634114584,1133.8976236979167 776.541015625,1133.94140625 C774.4822591145834,1133.9851888020833 772.77392578125,1134.269287109375 771.416015625,1134.794921875 C768.3278808593749,1136.0214029947917 765.9516194661459,1137.882080078125 764.287109375,1140.37890625 C762.6225585937501,1142.8756510416667 761.4617106119791,1145.8333333333333 760.8046875,1149.25 C760.563761393229,1150.5641276041667 760.3455403645834,1151.9883626302083 760.1484375,1153.521484375 C759.9512939453125,1155.0546061197917 759.7969970703125,1156.49951171875 759.6875,1157.857421875 C759.5780029296875,1159.2152506510417 759.5460205078125,1160.4193522135417 759.58984375,1161.470703125 C759.6336263020831,1162.52197265625 759.8199055989584,1163.310302734375 760.1484375,1163.8359375 C760.8711751302085,1165.1499837239583 762.1843668619791,1166.2017415364583 764.08984375,1166.990234375 C765.9952799479166,1167.7787272135417 768.185302734375,1168.23779296875 770.66015625,1168.369140625 C773.1350504557294,1168.5005696614583 775.6975504557291,1168.3256022135417 778.34765625,1167.84375 C780.997762044271,1167.3618977864583 783.5283610026041,1166.5077311197917 785.9375,1165.28125 C785.6746826171876,1167.3838704427083 785.4996744791666,1168.65380859375 785.412109375,1169.091796875 C785.4558919270834,1169.617431640625 785.7174072265625,1170.3192545572917 786.19921875,1171.1953125 C786.6810709635415,1172.0713704427083 787.2398274739584,1172.9029134114583 787.875,1173.69140625 C788.5320231119794,1174.4798990885417 789.1680094401041,1175.1158854166667 789.78125,1175.59765625 C790.4164225260416,1176.0795084635417 790.9412841796875,1176.1885579427083 791.357421875,1175.92578125 C791.4669189453126,1175.838134765625 791.7190348307291,1175.224853515625 792.11328125,1174.0859375 C792.5294189453126,1172.9471028645833 793.0223795572916,1171.39306640625 793.591796875,1169.421875 C794.1612141927084,1167.4507649739583 794.8065185546875,1165.149658203125 795.529296875,1162.521484375 C796.2739664713544,1159.8932291666667 797.0622965494791,1157.046630859375 797.89453125,1153.98046875 C798.9020182291666,1150.5638020833333 800.0628662109375,1146.5996907552083 801.376953125,1142.087890625 C802.6910400390625,1137.576171875 803.8970947265625,1133.0870768229167 804.9921875,1128.619140625 C805.6711425781251,1125.8157552083333 806.1075846354166,1123.5372721354167 806.3046875,1121.78515625 C806.523722330729,1120.0330403645833 806.5895589192709,1118.6088053385417 806.501953125,1117.513671875 C806.4362792968749,1116.4186197916667 806.2613118489584,1115.5437825520833 805.9765625,1114.88671875 C805.6918131510416,1114.2296549479167 805.364501953125,1113.5936686197917 804.9921875,1112.98046875 C804.5760498046876,1112.1919759114583 803.4358317057291,1111.0970052083333 801.57421875,1109.6953125 C799.7344563802084,1108.2936197916667 797.5557861328125,1107.023681640625 795.037109375,1105.884765625 C792.5184326171875,1104.7459309895833 789.82421875,1104.0008138020833 786.955078125,1103.650390625 C786.2432861328125,1103.5627848307292 785.5463307698568,1103.524205525716 784.86328125,1103.53515625 ZM628.96484375,1111.568359375 C628.6637064615885,1111.5902709960938 628.2775268554688,1111.710652669271 627.806640625,1111.9296875 C626.8648681640625,1112.36767578125 625.8131103515625,1112.9810384114583 624.65234375,1113.76953125 C623.513427734375,1114.5579427083333 622.4410400390625,1115.3895670572917 621.43359375,1116.265625 C620.4261067708334,1117.1417643229167 619.7243245442709,1117.843505859375 619.330078125,1118.369140625 C619.1767985026041,1118.6319173177083 618.9133707682291,1119.5067545572917 618.541015625,1120.99609375 C618.1905924479166,1122.4853515625 617.7315673828125,1124.36865234375 617.162109375,1126.646484375 C616.6145833333334,1128.9242350260417 616.0444742838541,1131.4661458333333 615.453125,1134.26953125 C614.86181640625,1137.0729166666667 614.2710774739584,1139.8310546875 613.6796875,1142.546875 C613.1102701822916,1145.2626953125 612.5514729817709,1147.8478190104167 612.00390625,1150.30078125 C611.4563802083334,1152.7538248697917 611.0292561848959,1154.768798828125 610.72265625,1156.345703125 L601.91796875,1164.494140625 C601.4799397786459,1162.6544596354167 601.0867513020834,1160.7259114583333 600.736328125,1158.7109375 C600.4078369140625,1156.6959635416667 600.3306884765625,1155.3375651041667 600.505859375,1154.63671875 C600.593505859375,1154.2862955729167 600.8888753255209,1153.170654296875 601.392578125,1151.287109375 C601.8963216145834,1149.403564453125 602.487060546875,1147.1250813802083 603.166015625,1144.453125 C603.8668619791666,1141.7810872395833 604.6006266276041,1138.8912760416667 605.3671875,1135.78125 C606.1337483723959,1132.6712239583333 606.8355712890625,1129.7794596354167 607.470703125,1127.107421875 C608.1277669270834,1124.4354654947917 608.6639404296875,1122.156982421875 609.080078125,1120.2734375 C609.4962158203125,1118.389892578125 609.6598714192709,1117.2742513020833 609.572265625,1116.923828125 C609.4189453125,1116.4857584635417 608.9805501302084,1116.1131998697917 608.2578125,1115.806640625 C607.5569661458334,1115.5 606.7593180338541,1115.2798665364583 605.861328125,1115.1484375 C604.9852294921875,1115.0170084635417 604.1197509765625,1114.9737141927083 603.265625,1115.017578125 C602.433349609375,1115.0613606770833 601.8971354166666,1115.2137858072917 601.65625,1115.4765625 C601.4153238932291,1115.7394205729167 601.0089111328125,1116.5729166666667 600.439453125,1117.974609375 C599.8918863932291,1119.3763020833333 599.2578938802084,1121.018798828125 598.53515625,1122.90234375 C597.8124186197916,1124.785888671875 597.0786539713541,1126.8008626302083 596.333984375,1128.947265625 C595.5893147786459,1131.0935872395833 594.9100748697916,1133.0428059895833 594.296875,1134.794921875 C593.7054850260416,1136.5470377604167 592.96044921875,1138.8893229166667 592.0625,1141.82421875 C591.16455078125,1144.759033203125 590.2877604166666,1147.694091796875 589.43359375,1150.62890625 C588.601318359375,1153.563720703125 587.8675537109375,1156.2147623697917 587.232421875,1158.580078125 C586.6191813151041,1160.9454752604167 586.3351236979166,1162.390380859375 586.37890625,1162.916015625 C586.3569742838541,1163.441650390625 586.7069091796875,1164.53662109375 587.4296875,1166.201171875 C588.1743570963541,1167.86572265625 589.0191650390625,1169.6173502604167 589.9609375,1171.45703125 C590.9246012369791,1173.2967936197917 591.9198404947916,1174.9412434895833 592.94921875,1176.38671875 C594.00048828125,1177.832275390625 594.8772786458334,1178.5546875 595.578125,1178.5546875 C596.0161539713541,1178.5546875 596.7611897786459,1178.2047526041667 597.8125,1177.50390625 C598.86376953125,1176.8030598958333 600.0565999348959,1175.8604329427083 601.392578125,1174.677734375 C602.7285970052084,1173.4950358072917 604.1189778645834,1172.179931640625 605.564453125,1170.734375 C607.0319010416666,1169.2888997395833 608.4015706380209,1167.9098307291667 609.671875,1166.595703125 C609.584228515625,1168.785888671875 609.584228515625,1170.3192545572917 609.671875,1171.1953125 C609.7594401041666,1172.0713704427083 609.9231363932291,1172.7279459635417 610.1640625,1173.166015625 C610.4049886067709,1173.691650390625 611.0841878255209,1174.2391764322917 612.201171875,1174.80859375 C613.340087890625,1175.3780924479167 614.5780843098959,1175.8597005208333 615.9140625,1176.25390625 C617.27197265625,1176.6481119791667 618.5419514973959,1176.9115397135417 619.724609375,1177.04296875 C620.92919921875,1177.1743977864583 621.6516520182291,1177.1085611979167 621.892578125,1176.845703125 C622.2211100260416,1176.5829264322917 622.4619547526041,1175.837890625 622.615234375,1174.611328125 C622.7904866536459,1173.3848470052083 622.9541422526041,1171.9173177083333 623.107421875,1170.208984375 C623.2607421875,1168.500732421875 623.3924153645834,1166.705810546875 623.501953125,1164.822265625 C623.6114501953125,1162.938720703125 623.7318929036459,1161.2078450520833 623.86328125,1159.630859375 C623.9289957682291,1158.667236328125 624.1584879557291,1156.8271484375 624.552734375,1154.111328125 C624.9469401041666,1151.3955078125 625.3647054036459,1148.3307291666667 625.802734375,1144.9140625 C626.2408040364584,1141.4974772135417 626.7224527994791,1137.90380859375 627.248046875,1134.13671875 C627.7737223307291,1130.36962890625 628.2327473958334,1126.866455078125 628.626953125,1123.625 C629.0211995442709,1120.383544921875 629.3052571614584,1117.666748046875 629.48046875,1115.4765625 C629.6775716145834,1113.2864583333333 629.7228190104166,1112.0616861979167 629.61328125,1111.798828125 C629.4818929036459,1111.6236165364583 629.2659810384115,1111.5464477539062 628.96484375,1111.568359375 ZM412.181640625,1111.9296875 C410.58281962076825,1111.9734903971355 408.9130554199218,1112.1484375 407.171875,1112.455078125 C403.6895345052083,1113.0682779947917 400.25024414062506,1114.20654296875 396.85546875,1115.87109375 C393.4826253255209,1117.53564453125 390.822285970052,1119.682373046875 388.873046875,1122.310546875 C387.5589396158853,1124.1503092447917 386.28702799479174,1126.5604654947917 385.060546875,1129.5390625 C383.85595703125,1132.5176595052083 382.71771240234375,1135.7574055989583 381.64453125,1139.26171875 C380.5713500976562,1142.7659505208333 379.6306559244791,1146.359619140625 378.8203125,1150.0390625 C378.0099283854167,1153.7185872395833 377.34204101562494,1157.0900065104167 376.81640625,1160.15625 C376.29077148437494,1163.222412109375 375.9388834635416,1165.8301595052083 375.763671875,1167.9765625 C375.5884602864584,1170.1228841145833 375.654317220052,1171.458740234375 375.9609375,1171.984375 C376.37705485026044,1172.7728678385417 377.6696166992187,1173.7587076822917 379.837890625,1174.94140625 C382.00614420572924,1176.1241048177083 384.5141194661458,1177.1306966145833 387.361328125,1177.962890625 C390.230448404948,1178.795166015625 393.23134358723956,1179.2335611979167 396.36328125,1179.27734375 C399.517110188802,1179.3212076822917 402.3411051432292,1178.553466796875 404.837890625,1176.9765625 C405.670166015625,1176.450927734375 406.54693603515625,1175.5535481770833 407.466796875,1174.283203125 C408.3866577148437,1173.012939453125 409.3066813151041,1171.5680338541667 410.2265625,1169.947265625 C411.1464233398438,1168.3265787760417 412.0232137044272,1166.6181640625 412.85546875,1164.822265625 C413.687744140625,1163.0262858072917 414.442138671875,1161.3612467447917 415.12109375,1159.828125 C415.80004882812494,1158.2950032552083 416.3155924479166,1157.00244140625 416.666015625,1155.951171875 C417.0164388020833,1154.89990234375 417.1801147460938,1154.2432454427083 417.158203125,1153.98046875 C417.0267944335937,1153.8052571614583 416.5338541666666,1153.673583984375 415.6796875,1153.5859375 C415.00073242187506,1153.498291015625 413.8831380208334,1153.498291015625 412.328125,1153.5859375 C410.7731119791667,1153.673583984375 408.58312988281244,1153.93701171875 405.7578125,1154.375 C404.59704589843744,1159.1057942708333 403.4587809244791,1162.5657552083333 402.341796875,1164.755859375 C401.24670410156256,1166.946044921875 400.2495320638022,1168.4794108072917 399.3515625,1169.35546875 C398.2345987955728,1170.3191731770833 397.22806803385424,1170.6691080729167 396.330078125,1170.40625 C395.0597737630209,1170.2310384114583 394.00801595052076,1169.9469401041667 393.17578125,1169.552734375 C392.3653971354167,1169.1585286458333 391.69750976562494,1168.7427571614583 391.171875,1168.3046875 C390.60245768229174,1167.779052734375 390.1753743489583,1167.208984375 389.890625,1166.595703125 C389.6278076171875,1165.8948567708333 389.5186767578125,1164.1638997395833 389.5625,1161.404296875 C389.62821451822924,1158.6446940104167 389.86903889973956,1155.5139973958333 390.28515625,1152.009765625 C392.6505330403645,1151.6593424479167 395.4764811197917,1151.1983235677083 398.76171875,1150.62890625 C402.068868001302,1150.0594075520833 405.18821207682294,1149.4912923177083 408.123046875,1148.921875 C411.0797526041667,1148.3524576822917 413.6216430664062,1147.804931640625 415.74609375,1147.279296875 C417.8924763997397,1146.753662109375 419.03072102864576,1146.4017740885417 419.162109375,1146.2265625 C419.3154296875,1145.9637044270833 419.59014892578125,1145.00048828125 419.984375,1143.3359375 C420.40049235026044,1141.6714680989583 420.81628417968744,1139.897216796875 421.232421875,1138.013671875 C421.64855957031244,1136.130126953125 422.0098063151041,1134.35595703125 422.31640625,1132.69140625 C422.64495849609375,1131.02685546875 422.85186767578125,1130.0203450520833 422.939453125,1129.669921875 C423.6622111002605,1125.990478515625 423.99147542317706,1122.8578287760417 423.92578125,1120.2734375 C423.86006673177076,1117.6890462239583 423.4988199869792,1115.9600423177083 422.841796875,1115.083984375 C421.702880859375,1113.5946451822917 419.67657470703125,1112.62939453125 416.763671875,1112.19140625 C415.3072102864583,1111.9723714192708 413.78046162923187,1111.8858846028645 412.181640625,1111.9296875 ZM500.076171875,1124.34765625 C498.8277791341145,1124.3038736979167 497.42612711588544,1124.50146484375 495.87109375,1124.939453125 C494.33799235026044,1125.3775227864583 492.8272094726562,1126.0340983072917 491.337890625,1126.91015625 C489.8485921223958,1127.7862141927083 488.8287963867188,1128.7928059895833 488.28125,1129.931640625 C487.9527180989584,1130.632568359375 487.48238118489576,1132.2111002604167 486.869140625,1134.6640625 C486.2777913411459,1137.1170247395833 485.6644490559895,1139.9862467447917 485.029296875,1143.271484375 C484.41605631510424,1146.5567220052083 483.8026936848958,1149.9940592447917 483.189453125,1153.5859375 C482.5762125651042,1157.1778157552083 482.06262207031244,1160.5079752604167 481.646484375,1163.57421875 C481.2522583007813,1166.6404622395833 481.0114339192709,1169.180419921875 480.923828125,1171.1953125 C480.8362223307291,1173.2102864583333 480.96598307291674,1174.216796875 481.31640625,1174.216796875 C481.97344970703125,1174.3920084635417 483.12493896484375,1174.326171875 484.767578125,1174.01953125 C486.41019694010424,1173.712890625 487.77797444661456,1172.9471842447917 488.873046875,1171.720703125 C489.2453816731772,1171.28271484375 489.847432454427,1169.9036458333333 490.6796875,1167.58203125 C491.511942545573,1165.260498046875 492.4319661458333,1162.4571126302083 493.439453125,1159.171875 C494.4688313802083,1155.8866373697917 495.5205688476563,1152.3815104166667 496.59375,1148.658203125 C497.6888224283855,1144.9348958333333 498.65211995442706,1141.4317220052083 499.484375,1138.146484375 C500.3385416666667,1134.8612467447917 501.02905273437494,1132.057861328125 501.5546875,1129.736328125 C502.080342610677,1127.4147135416667 502.3098551432292,1126.03369140625 502.244140625,1125.595703125 C502.0689290364584,1124.8072102864583 501.346455891927,1124.3914388020833 500.076171875,1124.34765625 ZM651.484375,1124.34765625 C650.2359619140625,1124.3038736979167 648.8342692057291,1124.50146484375 647.279296875,1124.939453125 C645.7461344401041,1125.3775227864583 644.2353922526041,1126.0340983072917 642.74609375,1126.91015625 C641.2567952473959,1127.7862141927083 640.2389729817709,1128.7928059895833 639.69140625,1129.931640625 C639.3629150390625,1130.632568359375 638.892578125,1132.2111002604167 638.279296875,1134.6640625 C637.68798828125,1137.1170247395833 637.0745849609375,1139.9862467447917 636.439453125,1143.271484375 C635.826171875,1146.5567220052083 635.2128499348959,1149.9940592447917 634.599609375,1153.5859375 C633.9863688151041,1157.1778157552083 633.4708251953125,1160.5079752604167 633.0546875,1163.57421875 C632.6604410807291,1166.6404622395833 632.4196370442709,1169.180419921875 632.33203125,1171.1953125 C632.2444661458334,1173.2102864583333 632.3761800130209,1174.216796875 632.7265625,1174.216796875 C633.3836263020834,1174.3920084635417 634.5331624348959,1174.326171875 636.17578125,1174.01953125 C637.8184000651041,1173.712890625 639.1881103515625,1172.9471842447917 640.283203125,1171.720703125 C640.655517578125,1171.28271484375 641.257568359375,1169.9036458333333 642.08984375,1167.58203125 C642.922119140625,1165.260498046875 643.8421630859375,1162.4571126302083 644.849609375,1159.171875 C645.8789876302084,1155.8866373697917 646.9287923177084,1152.3815104166667 648.001953125,1148.658203125 C649.0970865885416,1144.9348958333333 650.0622965494791,1141.4317220052083 650.89453125,1138.146484375 C651.7486979166666,1134.8612467447917 652.437255859375,1132.057861328125 652.962890625,1129.736328125 C653.488525390625,1127.4147135416667 653.7180582682291,1126.03369140625 653.65234375,1125.595703125 C653.4771321614584,1124.8072102864583 652.754638671875,1124.3914388020833 651.484375,1124.34765625 ZM404.912109375,1125.416015625 C405.7498423258464,1125.3831583658855 406.5584411621093,1125.4217529296875 407.3359375,1125.53125 C408.9128824869792,1125.7503255208333 410.01916503906244,1125.9911295572917 410.654296875,1126.25390625 C410.87331136067706,1126.4291178385417 411.0030721028647,1126.9540201822917 411.046875,1127.830078125 C411.09067789713544,1128.7061360677083 411.05871582031244,1129.7352701822917 410.94921875,1130.91796875 C410.83970133463544,1132.1006673177083 410.6966959635416,1133.327392578125 410.521484375,1134.59765625 C410.3462727864583,1135.8680013020833 410.18261718750006,1136.985595703125 410.029296875,1137.94921875 C409.35036214192706,1138.2120768229167 408.2986043294272,1138.5619303385417 406.875,1139.0 C405.4513753255208,1139.43798828125 403.84281412760424,1139.9423014322917 402.046875,1140.51171875 C400.25095621744794,1141.0812174479167 398.3656616210937,1141.6944986979167 396.39453125,1142.3515625 C394.4452718098958,1143.008544921875 392.70499674479174,1143.599365234375 391.171875,1144.125 C391.45660400390625,1141.8472493489583 391.8065185546875,1139.6572265625 392.22265625,1137.5546875 C392.6606852213542,1135.4521484375 393.14233398437494,1133.7005208333333 393.66796875,1132.298828125 C394.346923828125,1130.1962076822917 395.50779215494794,1128.662841796875 397.150390625,1127.69921875 C398.79302978515625,1126.7355143229167 400.5126546223958,1126.0769856770833 402.30859375,1125.7265625 C403.2065633138022,1125.5513509114583 404.07437642415357,1125.4488728841145 404.912109375,1125.416015625 ZM448.619140625,1137.16015625 C449.62660725911456,1137.685791015625 450.994384765625,1138.517333984375 452.724609375,1139.65625 C454.4767456054688,1140.795166015625 456.16444905598956,1142.0670572916667 457.78515625,1143.46875 C459.4059041341145,1144.8704427083333 460.7623697916667,1146.2701822916667 461.857421875,1147.671875 C462.9744059244791,1149.0735677083333 463.3901774088542,1150.345458984375 463.10546875,1151.484375 C462.84265136718756,1152.6232096354167 462.05434163411456,1153.8931477864583 460.740234375,1155.294921875 C459.42614746093756,1156.6966145833333 457.77431233723956,1158.07568359375 455.78125,1159.43359375 C453.78820800781244,1160.79150390625 451.5530192057292,1162.0408528645833 449.078125,1163.1796875 C446.6251424153645,1164.318603515625 444.1058756510417,1165.150146484375 441.521484375,1165.67578125 L448.619140625,1137.16015625 ZM778.775390625,1141.298828125 C780.1771240234376,1141.2550455729167 781.6559244791669,1141.3002115885417 783.2109375,1141.431640625 C784.7659098307294,1141.5630696614583 786.1337076822915,1141.8038736979167 787.31640625,1142.154296875 C788.4991048177085,1142.5047200520833 789.1556803385416,1142.943115234375 789.287109375,1143.46875 C789.3747151692706,1143.8191731770833 789.3540852864585,1144.3440755208333 789.22265625,1145.044921875 C789.0912272135415,1145.7457682291667 788.9275716145834,1146.4908040364583 788.73046875,1147.279296875 C788.5552571614585,1148.0677083333333 788.3237711588541,1148.8334147135417 788.0390625,1149.578125 C787.7762451171875,1150.32275390625 787.5899658203125,1150.91357421875 787.48046875,1151.3515625 C786.8234049479169,1153.3665364583333 785.7284342447915,1154.8133951822917 784.1953125,1155.689453125 C782.6622314453125,1156.5655110677083 781.0855712890625,1157.0677897135417 779.46484375,1157.19921875 C777.8660074869791,1157.3306477864583 776.3326416015626,1157.244140625 774.865234375,1156.9375 C773.419718424479,1156.630859375 772.4451497395834,1156.25830078125 771.94140625,1155.8203125 C771.7224121093751,1155.6451009114583 771.5813395182294,1155.25 771.515625,1154.63671875 C771.4499104817706,1154.0235188802083 771.449910481771,1153.301025390625 771.515625,1152.46875 C771.5813395182294,1151.636474609375 771.6791178385415,1150.7823079427083 771.810546875,1149.90625 C771.9419352213544,1149.0301920572917 772.1056315104165,1148.1986490885417 772.302734375,1147.41015625 C772.7845458984376,1145.74560546875 773.2775065104169,1144.5188802083333 773.78125,1143.73046875 C774.2849934895835,1142.9419759114583 774.9415690104166,1142.32861328125 775.751953125,1141.890625 C776.365193684896,1141.5402018229167 777.3736979166666,1141.3426920572917 778.775390625,1141.298828125 Z" fill-rule="evenodd" style="fill:#F8F8FF;" />
</svg>